<mxfile host="app.diagrams.net" modified="2024-06-07T21:45:30.824Z" agent="Mozilla/5.0 (Windows NT 10.0; Win64; x64) AppleWebKit/537.36 (KHTML, like Gecko) Chrome/123.0.0.0 Safari/537.36 OPR/109.0.0.0 (Edition std-1)" etag="xyBi9kigMovKqQYjJuv_" version="24.5.2" type="device">
  <diagram id="6a731a19-8d31-9384-78a2-239565b7b9f0" name="Page-1">
    <mxGraphModel dx="2808" dy="2555" grid="1" gridSize="10" guides="1" tooltips="1" connect="1" arrows="1" fold="1" page="1" pageScale="1" pageWidth="1169" pageHeight="827" background="none" math="0" shadow="0">
      <root>
        <mxCell id="0" />
        <mxCell id="uEwHEvehHXahFJ2oK5lq-1880" value="First Floor" style="locked=1;" parent="0" />
        <mxCell id="uEwHEvehHXahFJ2oK5lq-1884" value="Stairs" style="rounded=0;whiteSpace=wrap;html=1;" parent="uEwHEvehHXahFJ2oK5lq-1880" vertex="1">
          <mxGeometry x="430" y="240" width="90" height="90" as="geometry" />
        </mxCell>
        <mxCell id="F_J9CPUnIOaaphiWJHtH-1749" value="" style="rounded=0;whiteSpace=wrap;html=1;" vertex="1" parent="uEwHEvehHXahFJ2oK5lq-1880">
          <mxGeometry x="-410" y="60" width="260" height="180" as="geometry" />
        </mxCell>
        <mxCell id="F_J9CPUnIOaaphiWJHtH-1750" value="&lt;b&gt;Hammond Theatre&lt;/b&gt;" style="ellipse;whiteSpace=wrap;html=1;rounded=0;strokeColor=#82b366;fillColor=#d5e8d4;opacity=50;" vertex="1" parent="uEwHEvehHXahFJ2oK5lq-1880">
          <mxGeometry x="-360" y="91.25" width="150" height="117.5" as="geometry" />
        </mxCell>
        <mxCell id="1" value="Ground" style="locked=1;" parent="0" />
        <mxCell id="1749" value="Main Ent" style="rounded=1;whiteSpace=wrap;html=1;shadow=0;labelBackgroundColor=none;strokeColor=none;strokeWidth=3;fillColor=#2F5B7C;fontFamily=Helvetica;fontSize=16;fontColor=#FFFFFF;align=center;fontStyle=1;spacing=5;arcSize=7;perimeterSpacing=2;" parent="1" vertex="1">
          <mxGeometry x="320" y="370" width="130" height="30" as="geometry" />
        </mxCell>
        <mxCell id="gbSmUv_tBAqvp1aVJgPZ-1751" value="G2" style="whiteSpace=wrap;html=1;aspect=fixed;" parent="1" vertex="1">
          <mxGeometry x="290" y="260" width="30" height="30" as="geometry" />
        </mxCell>
        <mxCell id="gbSmUv_tBAqvp1aVJgPZ-1752" value="" style="rounded=0;whiteSpace=wrap;html=1;" parent="1" vertex="1">
          <mxGeometry x="210" y="260" width="80" height="30" as="geometry" />
        </mxCell>
        <mxCell id="gbSmUv_tBAqvp1aVJgPZ-1753" value="Headmaster" style="rounded=0;whiteSpace=wrap;html=1;" parent="1" vertex="1">
          <mxGeometry x="210" y="330" width="80" height="40" as="geometry" />
        </mxCell>
        <mxCell id="gbSmUv_tBAqvp1aVJgPZ-1756" value="G35" style="rounded=0;whiteSpace=wrap;html=1;" parent="1" vertex="1">
          <mxGeometry x="270" y="230" width="50" height="30" as="geometry" />
        </mxCell>
        <mxCell id="gbSmUv_tBAqvp1aVJgPZ-1757" value="Keepers&lt;br&gt;G36" style="rounded=0;whiteSpace=wrap;html=1;" parent="1" vertex="1">
          <mxGeometry x="220" y="230" width="50" height="30" as="geometry" />
        </mxCell>
        <mxCell id="gbSmUv_tBAqvp1aVJgPZ-1758" value="NODE" style="rhombus;whiteSpace=wrap;html=1;" parent="1" vertex="1">
          <mxGeometry x="360" y="270" width="50" height="50" as="geometry" />
        </mxCell>
        <mxCell id="gbSmUv_tBAqvp1aVJgPZ-1763" value="Stairs" style="rounded=0;whiteSpace=wrap;html=1;" parent="1" vertex="1">
          <mxGeometry x="430" y="240" width="90" height="90" as="geometry" />
        </mxCell>
        <mxCell id="gbSmUv_tBAqvp1aVJgPZ-1764" value="G3" style="rounded=0;whiteSpace=wrap;html=1;" parent="1" vertex="1">
          <mxGeometry x="520" y="230" width="30" height="100" as="geometry" />
        </mxCell>
        <mxCell id="gbSmUv_tBAqvp1aVJgPZ-1765" value="G4" style="rounded=0;whiteSpace=wrap;html=1;" parent="1" vertex="1">
          <mxGeometry x="550" y="230" width="30" height="100" as="geometry" />
        </mxCell>
        <mxCell id="gbSmUv_tBAqvp1aVJgPZ-1766" value="G5" style="rounded=0;whiteSpace=wrap;html=1;" parent="1" vertex="1">
          <mxGeometry x="580" y="230" width="30" height="100" as="geometry" />
        </mxCell>
        <mxCell id="gbSmUv_tBAqvp1aVJgPZ-1771" value="G6" style="rounded=0;whiteSpace=wrap;html=1;" parent="1" vertex="1">
          <mxGeometry x="610" y="230" width="30" height="100" as="geometry" />
        </mxCell>
        <mxCell id="gbSmUv_tBAqvp1aVJgPZ-1774" value="G7" style="rounded=0;whiteSpace=wrap;html=1;" parent="1" vertex="1">
          <mxGeometry x="640" y="230" width="30" height="100" as="geometry" />
        </mxCell>
        <mxCell id="gbSmUv_tBAqvp1aVJgPZ-1775" value="G8" style="rounded=0;whiteSpace=wrap;html=1;" parent="1" vertex="1">
          <mxGeometry x="670" y="230" width="30" height="100" as="geometry" />
        </mxCell>
        <mxCell id="gbSmUv_tBAqvp1aVJgPZ-1776" value="G9" style="rounded=0;whiteSpace=wrap;html=1;" parent="1" vertex="1">
          <mxGeometry x="700" y="230" width="30" height="100" as="geometry" />
        </mxCell>
        <mxCell id="gbSmUv_tBAqvp1aVJgPZ-1777" value="G10" style="rounded=0;whiteSpace=wrap;html=1;" parent="1" vertex="1">
          <mxGeometry x="730" y="230" width="30" height="100" as="geometry" />
        </mxCell>
        <mxCell id="gbSmUv_tBAqvp1aVJgPZ-1778" value="Atrium" style="rounded=1;whiteSpace=wrap;html=1;shadow=0;labelBackgroundColor=none;strokeColor=none;strokeWidth=3;fillColor=#2F5B7C;fontFamily=Helvetica;fontSize=16;fontColor=#FFFFFF;align=center;fontStyle=1;spacing=5;arcSize=7;perimeterSpacing=2;" parent="1" vertex="1">
          <mxGeometry x="760" y="300" width="60" height="30" as="geometry" />
        </mxCell>
        <mxCell id="gbSmUv_tBAqvp1aVJgPZ-1781" value="Stairs" style="rounded=0;whiteSpace=wrap;html=1;direction=south;" parent="1" vertex="1">
          <mxGeometry x="820" y="240" width="40" height="40" as="geometry" />
        </mxCell>
        <mxCell id="gbSmUv_tBAqvp1aVJgPZ-1782" value="" style="rounded=0;whiteSpace=wrap;html=1;direction=south;" parent="1" vertex="1">
          <mxGeometry x="820" y="280" width="40" height="30" as="geometry" />
        </mxCell>
        <mxCell id="gbSmUv_tBAqvp1aVJgPZ-1783" value="G43" style="rounded=0;whiteSpace=wrap;html=1;direction=south;" parent="1" vertex="1">
          <mxGeometry x="860" y="280" width="40" height="30" as="geometry" />
        </mxCell>
        <mxCell id="gbSmUv_tBAqvp1aVJgPZ-1784" value="Maths OfficeG42" style="rounded=0;whiteSpace=wrap;html=1;direction=south;" parent="1" vertex="1">
          <mxGeometry x="860" y="250" width="70" height="30" as="geometry" />
        </mxCell>
        <mxCell id="gbSmUv_tBAqvp1aVJgPZ-1785" value="G42" style="rounded=0;whiteSpace=wrap;html=1;direction=south;" parent="1" vertex="1">
          <mxGeometry x="900" y="280" width="60" height="30" as="geometry" />
        </mxCell>
        <mxCell id="gbSmUv_tBAqvp1aVJgPZ-1787" value="G44&lt;br&gt;HoY3" style="rounded=0;whiteSpace=wrap;html=1;direction=south;" parent="1" vertex="1">
          <mxGeometry x="930" y="240" width="30" height="40" as="geometry" />
        </mxCell>
        <mxCell id="gbSmUv_tBAqvp1aVJgPZ-1789" value="G45&lt;br&gt;HoY" style="rounded=0;whiteSpace=wrap;html=1;direction=south;" parent="1" vertex="1">
          <mxGeometry x="930" y="200" width="30" height="40" as="geometry" />
        </mxCell>
        <mxCell id="gbSmUv_tBAqvp1aVJgPZ-1790" value="" style="rounded=0;whiteSpace=wrap;html=1;direction=south;" parent="1" vertex="1">
          <mxGeometry x="930" y="180" width="30" height="20" as="geometry" />
        </mxCell>
        <mxCell id="gbSmUv_tBAqvp1aVJgPZ-1791" value="" style="rounded=0;whiteSpace=wrap;html=1;direction=south;" parent="1" vertex="1">
          <mxGeometry x="960" y="180" width="30" height="20" as="geometry" />
        </mxCell>
        <mxCell id="gbSmUv_tBAqvp1aVJgPZ-1792" value="G46" style="rounded=0;whiteSpace=wrap;html=1;direction=south;" parent="1" vertex="1">
          <mxGeometry x="930" y="110" width="60" height="70" as="geometry" />
        </mxCell>
        <mxCell id="gbSmUv_tBAqvp1aVJgPZ-1793" value="G47" style="rounded=0;whiteSpace=wrap;html=1;direction=south;" parent="1" vertex="1">
          <mxGeometry x="930" y="40" width="60" height="70" as="geometry" />
        </mxCell>
        <mxCell id="gbSmUv_tBAqvp1aVJgPZ-1794" value="" style="rounded=0;whiteSpace=wrap;html=1;direction=south;" parent="1" vertex="1">
          <mxGeometry x="450" y="-130" width="160" height="320" as="geometry" />
        </mxCell>
        <mxCell id="gbSmUv_tBAqvp1aVJgPZ-1795" value="G34" style="rounded=0;whiteSpace=wrap;html=1;" parent="1" vertex="1">
          <mxGeometry x="280" y="160" width="40" height="30" as="geometry" />
        </mxCell>
        <mxCell id="gbSmUv_tBAqvp1aVJgPZ-1796" value="G41" style="rounded=0;whiteSpace=wrap;html=1;" parent="1" vertex="1">
          <mxGeometry x="280" y="130" width="40" height="30" as="geometry" />
        </mxCell>
        <mxCell id="gbSmUv_tBAqvp1aVJgPZ-1797" value="" style="rounded=0;whiteSpace=wrap;html=1;" parent="1" vertex="1">
          <mxGeometry x="280" y="110" width="40" height="20" as="geometry" />
        </mxCell>
        <mxCell id="gbSmUv_tBAqvp1aVJgPZ-1798" value="G33" style="rounded=0;whiteSpace=wrap;html=1;" parent="1" vertex="1">
          <mxGeometry x="280" y="80" width="40" height="30" as="geometry" />
        </mxCell>
        <mxCell id="gbSmUv_tBAqvp1aVJgPZ-1799" value="G32" style="rounded=0;whiteSpace=wrap;html=1;" parent="1" vertex="1">
          <mxGeometry x="280" y="50" width="40" height="30" as="geometry" />
        </mxCell>
        <mxCell id="gbSmUv_tBAqvp1aVJgPZ-1803" value="&amp;nbsp;Node" style="rhombus;whiteSpace=wrap;html=1;" parent="1" vertex="1">
          <mxGeometry x="365" y="20" width="40" height="35" as="geometry" />
        </mxCell>
        <mxCell id="gbSmUv_tBAqvp1aVJgPZ-1809" value="Node" style="rhombus;whiteSpace=wrap;html=1;" parent="1" vertex="1">
          <mxGeometry x="365" y="190" width="40" height="40" as="geometry" />
        </mxCell>
        <mxCell id="gbSmUv_tBAqvp1aVJgPZ-1814" value="Cloi" style="rounded=1;whiteSpace=wrap;html=1;shadow=0;labelBackgroundColor=none;strokeColor=none;strokeWidth=3;fillColor=#2F5B7C;fontFamily=Helvetica;fontSize=16;fontColor=#FFFFFF;align=center;fontStyle=1;spacing=5;arcSize=7;perimeterSpacing=2;" parent="1" vertex="1">
          <mxGeometry x="280" y="22.5" width="40" height="30" as="geometry" />
        </mxCell>
        <mxCell id="gbSmUv_tBAqvp1aVJgPZ-1818" value="G30" style="rounded=0;whiteSpace=wrap;html=1;" parent="1" vertex="1">
          <mxGeometry x="280" y="-37.5" width="40" height="30" as="geometry" />
        </mxCell>
        <mxCell id="gbSmUv_tBAqvp1aVJgPZ-1819" value="G31" style="rounded=0;whiteSpace=wrap;html=1;" parent="1" vertex="1">
          <mxGeometry x="280" y="-7.5" width="40" height="30" as="geometry" />
        </mxCell>
        <mxCell id="gbSmUv_tBAqvp1aVJgPZ-1820" value="Prep&lt;br&gt;G27" style="rounded=0;whiteSpace=wrap;html=1;" parent="1" vertex="1">
          <mxGeometry x="280" y="-130" width="40" height="92.5" as="geometry" />
        </mxCell>
        <mxCell id="gbSmUv_tBAqvp1aVJgPZ-1822" value="" style="endArrow=none;html=1;rounded=0;entryX=0.5;entryY=1;entryDx=0;entryDy=0;exitX=0.5;exitY=0;exitDx=0;exitDy=0;" parent="1" source="gbSmUv_tBAqvp1aVJgPZ-1809" target="gbSmUv_tBAqvp1aVJgPZ-1803" edge="1">
          <mxGeometry width="50" height="50" relative="1" as="geometry">
            <mxPoint x="340" y="110" as="sourcePoint" />
            <mxPoint x="390" y="60" as="targetPoint" />
          </mxGeometry>
        </mxCell>
        <mxCell id="gbSmUv_tBAqvp1aVJgPZ-1824" value="" style="endArrow=none;html=1;rounded=0;entryX=0.5;entryY=1;entryDx=0;entryDy=0;exitX=0.5;exitY=0;exitDx=0;exitDy=0;" parent="1" source="gbSmUv_tBAqvp1aVJgPZ-1758" target="gbSmUv_tBAqvp1aVJgPZ-1809" edge="1">
          <mxGeometry width="50" height="50" relative="1" as="geometry">
            <mxPoint x="340" y="200" as="sourcePoint" />
            <mxPoint x="390" y="150" as="targetPoint" />
          </mxGeometry>
        </mxCell>
        <mxCell id="gbSmUv_tBAqvp1aVJgPZ-1826" value="" style="endArrow=none;html=1;rounded=0;entryX=0.5;entryY=0;entryDx=0;entryDy=0;" parent="1" target="1749" edge="1">
          <mxGeometry width="50" height="50" relative="1" as="geometry">
            <mxPoint x="385" y="320" as="sourcePoint" />
            <mxPoint x="400" y="360" as="targetPoint" />
          </mxGeometry>
        </mxCell>
        <mxCell id="gbSmUv_tBAqvp1aVJgPZ-1827" value="" style="endArrow=none;html=1;rounded=0;fillColor=#f8cecc;strokeColor=#b85450;" parent="1" source="gbSmUv_tBAqvp1aVJgPZ-1758" edge="1">
          <mxGeometry width="50" height="50" relative="1" as="geometry">
            <mxPoint x="340" y="320" as="sourcePoint" />
            <mxPoint x="240" y="295" as="targetPoint" />
          </mxGeometry>
        </mxCell>
        <mxCell id="gbSmUv_tBAqvp1aVJgPZ-1828" value="" style="endArrow=none;html=1;rounded=0;exitX=1;exitY=0.5;exitDx=0;exitDy=0;entryX=-0.002;entryY=0.608;entryDx=0;entryDy=0;entryPerimeter=0;" parent="1" source="gbSmUv_tBAqvp1aVJgPZ-1758" target="gbSmUv_tBAqvp1aVJgPZ-1763" edge="1">
          <mxGeometry width="50" height="50" relative="1" as="geometry">
            <mxPoint x="340" y="320" as="sourcePoint" />
            <mxPoint x="410" y="260" as="targetPoint" />
          </mxGeometry>
        </mxCell>
        <mxCell id="gbSmUv_tBAqvp1aVJgPZ-1829" value="" style="endArrow=none;html=1;rounded=0;entryX=0;entryY=0.5;entryDx=0;entryDy=0;exitX=1;exitY=0.5;exitDx=0;exitDy=0;" parent="1" source="8CyhJUhW_bh8TN33WHjR-1827" target="gbSmUv_tBAqvp1aVJgPZ-1809" edge="1">
          <mxGeometry width="50" height="50" relative="1" as="geometry">
            <mxPoint x="170" y="210" as="sourcePoint" />
            <mxPoint x="400" y="100" as="targetPoint" />
          </mxGeometry>
        </mxCell>
        <mxCell id="gbSmUv_tBAqvp1aVJgPZ-1830" value="" style="endArrow=none;html=1;rounded=0;exitX=1;exitY=0.5;exitDx=0;exitDy=0;entryX=0;entryY=0.5;entryDx=0;entryDy=0;" parent="1" source="gbSmUv_tBAqvp1aVJgPZ-1809" target="gbSmUv_tBAqvp1aVJgPZ-1883" edge="1">
          <mxGeometry width="50" height="50" relative="1" as="geometry">
            <mxPoint x="180.0000000000001" y="220" as="sourcePoint" />
            <mxPoint x="610" y="210" as="targetPoint" />
          </mxGeometry>
        </mxCell>
        <mxCell id="gbSmUv_tBAqvp1aVJgPZ-1831" value="" style="endArrow=none;html=1;rounded=0;entryX=0;entryY=0.5;entryDx=0;entryDy=0;exitX=1;exitY=0.5;exitDx=0;exitDy=0;" parent="1" source="gbSmUv_tBAqvp1aVJgPZ-1814" target="gbSmUv_tBAqvp1aVJgPZ-1803" edge="1">
          <mxGeometry width="50" height="50" relative="1" as="geometry">
            <mxPoint x="350" as="sourcePoint" />
            <mxPoint x="400" y="-50" as="targetPoint" />
          </mxGeometry>
        </mxCell>
        <mxCell id="gbSmUv_tBAqvp1aVJgPZ-1832" value="" style="endArrow=none;html=1;rounded=0;exitX=0.5;exitY=0;exitDx=0;exitDy=0;entryX=0.5;entryY=1;entryDx=0;entryDy=0;" parent="1" source="gbSmUv_tBAqvp1aVJgPZ-1803" target="gbSmUv_tBAqvp1aVJgPZ-1834" edge="1">
          <mxGeometry width="50" height="50" relative="1" as="geometry">
            <mxPoint x="360" y="-20" as="sourcePoint" />
            <mxPoint x="385" y="-110" as="targetPoint" />
          </mxGeometry>
        </mxCell>
        <mxCell id="gbSmUv_tBAqvp1aVJgPZ-1834" value="Node" style="rhombus;whiteSpace=wrap;html=1;rounded=0;strokeColor=#2F5B7C;fillColor=none;" parent="1" vertex="1">
          <mxGeometry x="357.5" y="-180" width="55" height="50" as="geometry" />
        </mxCell>
        <mxCell id="gbSmUv_tBAqvp1aVJgPZ-1837" value="" style="endArrow=none;html=1;rounded=0;entryX=1;entryY=0.5;entryDx=0;entryDy=0;exitX=0;exitY=0.5;exitDx=0;exitDy=0;" parent="1" source="gbSmUv_tBAqvp1aVJgPZ-1834" target="7g-5XyvWssEIG0KanUl5-1750" edge="1">
          <mxGeometry width="50" height="50" relative="1" as="geometry">
            <mxPoint x="340" y="-90" as="sourcePoint" />
            <mxPoint x="332.5" y="-155" as="targetPoint" />
          </mxGeometry>
        </mxCell>
        <mxCell id="gbSmUv_tBAqvp1aVJgPZ-1839" value="" style="endArrow=none;html=1;rounded=0;entryX=0.5;entryY=0;entryDx=0;entryDy=0;exitX=0.5;exitY=1;exitDx=0;exitDy=0;" parent="1" source="7g-5XyvWssEIG0KanUl5-1807" target="gbSmUv_tBAqvp1aVJgPZ-1834" edge="1">
          <mxGeometry width="50" height="50" relative="1" as="geometry">
            <mxPoint x="300" y="-240" as="sourcePoint" />
            <mxPoint x="305" y="-179.9999999999999" as="targetPoint" />
          </mxGeometry>
        </mxCell>
        <mxCell id="gbSmUv_tBAqvp1aVJgPZ-1841" value="" style="endArrow=none;html=1;rounded=0;exitX=1;exitY=0.5;exitDx=0;exitDy=0;entryX=0;entryY=0.5;entryDx=0;entryDy=0;" parent="1" source="gbSmUv_tBAqvp1aVJgPZ-1834" target="gbSmUv_tBAqvp1aVJgPZ-1855" edge="1">
          <mxGeometry width="50" height="50" relative="1" as="geometry">
            <mxPoint x="460" y="-110" as="sourcePoint" />
            <mxPoint x="610" y="-155" as="targetPoint" />
          </mxGeometry>
        </mxCell>
        <mxCell id="gbSmUv_tBAqvp1aVJgPZ-1842" value="Physics Office&lt;br&gt;G25" style="rounded=0;whiteSpace=wrap;html=1;" parent="1" vertex="1">
          <mxGeometry x="430" y="-240" width="60" height="60" as="geometry" />
        </mxCell>
        <mxCell id="gbSmUv_tBAqvp1aVJgPZ-1843" value="G24" style="rounded=0;whiteSpace=wrap;html=1;" parent="1" vertex="1">
          <mxGeometry x="490" y="-240" width="100" height="60" as="geometry" />
        </mxCell>
        <mxCell id="gbSmUv_tBAqvp1aVJgPZ-1845" value="" style="rounded=0;whiteSpace=wrap;html=1;" parent="1" vertex="1">
          <mxGeometry x="585" y="-240" width="30" height="60" as="geometry" />
        </mxCell>
        <mxCell id="gbSmUv_tBAqvp1aVJgPZ-1846" value="G23" style="rounded=0;whiteSpace=wrap;html=1;" parent="1" vertex="1">
          <mxGeometry x="615" y="-240" width="95" height="60" as="geometry" />
        </mxCell>
        <mxCell id="gbSmUv_tBAqvp1aVJgPZ-1847" value="G18" style="rounded=0;whiteSpace=wrap;html=1;" parent="1" vertex="1">
          <mxGeometry x="710" y="-240" width="50" height="60" as="geometry" />
        </mxCell>
        <mxCell id="gbSmUv_tBAqvp1aVJgPZ-1848" value="" style="rounded=0;whiteSpace=wrap;html=1;strokeColor=#2F5B7C;fillColor=none;" parent="1" vertex="1">
          <mxGeometry x="610" y="-135" width="150" height="320" as="geometry" />
        </mxCell>
        <mxCell id="gbSmUv_tBAqvp1aVJgPZ-1850" value="" style="rounded=0;whiteSpace=wrap;html=1;" parent="1" vertex="1">
          <mxGeometry x="610" y="-130" width="20" height="40" as="geometry" />
        </mxCell>
        <mxCell id="gbSmUv_tBAqvp1aVJgPZ-1851" value="G19" style="rounded=0;whiteSpace=wrap;html=1;" parent="1" vertex="1">
          <mxGeometry x="710" y="-130" width="50" height="40" as="geometry" />
        </mxCell>
        <mxCell id="gbSmUv_tBAqvp1aVJgPZ-1852" value="G18" style="rounded=0;whiteSpace=wrap;html=1;" parent="1" vertex="1">
          <mxGeometry x="680" y="-130" width="30" height="20" as="geometry" />
        </mxCell>
        <mxCell id="gbSmUv_tBAqvp1aVJgPZ-1853" value="G20" style="rounded=0;whiteSpace=wrap;html=1;" parent="1" vertex="1">
          <mxGeometry x="680" y="-110" width="30" height="20" as="geometry" />
        </mxCell>
        <mxCell id="gbSmUv_tBAqvp1aVJgPZ-1854" value="Lift" style="rounded=0;whiteSpace=wrap;html=1;" parent="1" vertex="1">
          <mxGeometry x="630" y="-130" width="30" height="40" as="geometry" />
        </mxCell>
        <mxCell id="gbSmUv_tBAqvp1aVJgPZ-1855" value="Node" style="rhombus;whiteSpace=wrap;html=1;rounded=0;strokeColor=#2F5B7C;fillColor=none;" parent="1" vertex="1">
          <mxGeometry x="640" y="-180" width="55" height="50" as="geometry" />
        </mxCell>
        <mxCell id="gbSmUv_tBAqvp1aVJgPZ-1859" value="" style="endArrow=none;html=1;rounded=0;entryX=0.5;entryY=1;entryDx=0;entryDy=0;" parent="1" target="gbSmUv_tBAqvp1aVJgPZ-1855" edge="1">
          <mxGeometry width="50" height="50" relative="1" as="geometry">
            <mxPoint x="670" y="-80" as="sourcePoint" />
            <mxPoint x="710" y="-110" as="targetPoint" />
          </mxGeometry>
        </mxCell>
        <mxCell id="gbSmUv_tBAqvp1aVJgPZ-1860" value="Stairs" style="rounded=0;whiteSpace=wrap;html=1;" parent="1" vertex="1">
          <mxGeometry x="630" y="-30" width="40" height="40" as="geometry" />
        </mxCell>
        <mxCell id="gbSmUv_tBAqvp1aVJgPZ-1861" value="G22&lt;br&gt;HoY" style="rounded=0;whiteSpace=wrap;html=1;strokeColor=#2F5B7C;fillColor=none;" parent="1" vertex="1">
          <mxGeometry x="620" y="12.5" width="30" height="50" as="geometry" />
        </mxCell>
        <mxCell id="gbSmUv_tBAqvp1aVJgPZ-1862" value="G21" style="rounded=0;whiteSpace=wrap;html=1;strokeColor=#2F5B7C;fillColor=none;" parent="1" vertex="1">
          <mxGeometry x="700" y="-7.5" width="30" height="22.5" as="geometry" />
        </mxCell>
        <mxCell id="gbSmUv_tBAqvp1aVJgPZ-1863" value="&lt;b&gt;&amp;nbsp; &amp;nbsp; 6 Form Centre&lt;/b&gt;" style="ellipse;whiteSpace=wrap;html=1;rounded=0;strokeColor=#82b366;fillColor=#d5e8d4;opacity=50;" parent="1" vertex="1">
          <mxGeometry x="625" y="-10" width="120" height="80" as="geometry" />
        </mxCell>
        <mxCell id="gbSmUv_tBAqvp1aVJgPZ-1864" value="" style="rounded=0;whiteSpace=wrap;html=1;strokeColor=#2F5B7C;fillColor=none;" parent="1" vertex="1">
          <mxGeometry x="610" y="100" width="60" height="90" as="geometry" />
        </mxCell>
        <mxCell id="gbSmUv_tBAqvp1aVJgPZ-1865" value="G7" style="rounded=0;whiteSpace=wrap;html=1;strokeColor=#2F5B7C;fillColor=none;" parent="1" vertex="1">
          <mxGeometry x="610" y="160" width="30" height="30" as="geometry" />
        </mxCell>
        <mxCell id="gbSmUv_tBAqvp1aVJgPZ-1866" value="" style="rounded=0;whiteSpace=wrap;html=1;strokeColor=#2F5B7C;fillColor=none;" parent="1" vertex="1">
          <mxGeometry x="670" y="150" width="30" height="40" as="geometry" />
        </mxCell>
        <mxCell id="gbSmUv_tBAqvp1aVJgPZ-1867" value="" style="rounded=0;whiteSpace=wrap;html=1;strokeColor=#2F5B7C;fillColor=none;" parent="1" vertex="1">
          <mxGeometry x="700" y="160" width="30" height="30" as="geometry" />
        </mxCell>
        <mxCell id="gbSmUv_tBAqvp1aVJgPZ-1868" value="" style="rounded=0;whiteSpace=wrap;html=1;strokeColor=#2F5B7C;fillColor=none;" parent="1" vertex="1">
          <mxGeometry x="730" y="150" width="30" height="40" as="geometry" />
        </mxCell>
        <mxCell id="gbSmUv_tBAqvp1aVJgPZ-1869" value="" style="rounded=0;whiteSpace=wrap;html=1;strokeColor=#2F5B7C;fillColor=none;" parent="1" vertex="1">
          <mxGeometry x="700" y="150" width="30" height="10" as="geometry" />
        </mxCell>
        <mxCell id="gbSmUv_tBAqvp1aVJgPZ-1870" value="G13" style="rounded=0;whiteSpace=wrap;html=1;strokeColor=#2F5B7C;fillColor=none;" parent="1" vertex="1">
          <mxGeometry x="670" y="110" width="90" height="40" as="geometry" />
        </mxCell>
        <mxCell id="gbSmUv_tBAqvp1aVJgPZ-1871" value="G11" style="rounded=0;whiteSpace=wrap;html=1;strokeColor=#2F5B7C;fillColor=none;" parent="1" vertex="1">
          <mxGeometry x="820" y="130" width="60" height="70" as="geometry" />
        </mxCell>
        <mxCell id="gbSmUv_tBAqvp1aVJgPZ-1872" value="G12" style="rounded=0;whiteSpace=wrap;html=1;strokeColor=#2F5B7C;fillColor=none;" parent="1" vertex="1">
          <mxGeometry x="820" y="60" width="60" height="70" as="geometry" />
        </mxCell>
        <mxCell id="gbSmUv_tBAqvp1aVJgPZ-1873" value="G14" style="rounded=0;whiteSpace=wrap;html=1;strokeColor=#2F5B7C;fillColor=none;" parent="1" vertex="1">
          <mxGeometry x="820" y="-10" width="60" height="70" as="geometry" />
        </mxCell>
        <mxCell id="gbSmUv_tBAqvp1aVJgPZ-1874" value="" style="rounded=0;whiteSpace=wrap;html=1;strokeColor=#2F5B7C;fillColor=none;" parent="1" vertex="1">
          <mxGeometry x="850" y="-210" width="30" height="10" as="geometry" />
        </mxCell>
        <mxCell id="gbSmUv_tBAqvp1aVJgPZ-1875" value="G15" style="rounded=0;whiteSpace=wrap;html=1;strokeColor=#2F5B7C;fillColor=none;" parent="1" vertex="1">
          <mxGeometry x="820" y="-80" width="60" height="70" as="geometry" />
        </mxCell>
        <mxCell id="gbSmUv_tBAqvp1aVJgPZ-1877" value="G17" style="rounded=0;whiteSpace=wrap;html=1;strokeColor=#2F5B7C;fillColor=none;" parent="1" vertex="1">
          <mxGeometry x="820" y="-200" width="60" height="90" as="geometry" />
        </mxCell>
        <mxCell id="gbSmUv_tBAqvp1aVJgPZ-1878" value="G16" style="rounded=0;whiteSpace=wrap;html=1;strokeColor=#2F5B7C;fillColor=none;" parent="1" vertex="1">
          <mxGeometry x="820" y="-110" width="60" height="30" as="geometry" />
        </mxCell>
        <mxCell id="gbSmUv_tBAqvp1aVJgPZ-1880" value="Node" style="rhombus;whiteSpace=wrap;html=1;rounded=0;strokeColor=#2F5B7C;fillColor=none;" parent="1" vertex="1">
          <mxGeometry x="762.5" y="-180" width="55" height="50" as="geometry" />
        </mxCell>
        <mxCell id="gbSmUv_tBAqvp1aVJgPZ-1881" value="" style="endArrow=none;html=1;rounded=0;exitX=1;exitY=0.5;exitDx=0;exitDy=0;entryX=0;entryY=0.5;entryDx=0;entryDy=0;" parent="1" source="gbSmUv_tBAqvp1aVJgPZ-1855" target="gbSmUv_tBAqvp1aVJgPZ-1880" edge="1">
          <mxGeometry width="50" height="50" relative="1" as="geometry">
            <mxPoint x="820" y="-80" as="sourcePoint" />
            <mxPoint x="870" y="-130" as="targetPoint" />
          </mxGeometry>
        </mxCell>
        <mxCell id="gbSmUv_tBAqvp1aVJgPZ-1883" value="Node" style="rhombus;whiteSpace=wrap;html=1;rounded=0;strokeColor=#2F5B7C;fillColor=none;" parent="1" vertex="1">
          <mxGeometry x="762.5" y="185" width="55" height="50" as="geometry" />
        </mxCell>
        <mxCell id="gbSmUv_tBAqvp1aVJgPZ-1887" value="" style="endArrow=none;html=1;rounded=0;entryX=0.5;entryY=1;entryDx=0;entryDy=0;exitX=0.5;exitY=0;exitDx=0;exitDy=0;" parent="1" source="gbSmUv_tBAqvp1aVJgPZ-1778" target="gbSmUv_tBAqvp1aVJgPZ-1883" edge="1">
          <mxGeometry width="50" height="50" relative="1" as="geometry">
            <mxPoint x="750" y="250" as="sourcePoint" />
            <mxPoint x="800" y="200" as="targetPoint" />
          </mxGeometry>
        </mxCell>
        <mxCell id="gbSmUv_tBAqvp1aVJgPZ-1888" value="Node" style="rhombus;whiteSpace=wrap;html=1;rounded=0;strokeColor=#2F5B7C;fillColor=none;" parent="1" vertex="1">
          <mxGeometry x="875" y="185" width="55" height="50" as="geometry" />
        </mxCell>
        <mxCell id="gbSmUv_tBAqvp1aVJgPZ-1889" value="" style="endArrow=none;html=1;rounded=0;exitX=1;exitY=0.5;exitDx=0;exitDy=0;entryX=0;entryY=0.5;entryDx=0;entryDy=0;" parent="1" source="gbSmUv_tBAqvp1aVJgPZ-1883" target="gbSmUv_tBAqvp1aVJgPZ-1888" edge="1">
          <mxGeometry width="50" height="50" relative="1" as="geometry">
            <mxPoint x="810" y="190" as="sourcePoint" />
            <mxPoint x="860" y="140" as="targetPoint" />
          </mxGeometry>
        </mxCell>
        <mxCell id="gbSmUv_tBAqvp1aVJgPZ-1890" value="" style="endArrow=none;html=1;rounded=0;exitX=0.5;exitY=0;exitDx=0;exitDy=0;entryX=0.5;entryY=1;entryDx=0;entryDy=0;" parent="1" source="gbSmUv_tBAqvp1aVJgPZ-1888" target="gbSmUv_tBAqvp1aVJgPZ-1894" edge="1">
          <mxGeometry width="50" height="50" relative="1" as="geometry">
            <mxPoint x="820" y="120" as="sourcePoint" />
            <mxPoint x="900" y="50" as="targetPoint" />
          </mxGeometry>
        </mxCell>
        <mxCell id="gbSmUv_tBAqvp1aVJgPZ-1891" value="" style="endArrow=none;html=1;rounded=0;exitX=1;exitY=0.5;exitDx=0;exitDy=0;entryX=0.522;entryY=0.983;entryDx=0;entryDy=0;entryPerimeter=0;" parent="1" source="gbSmUv_tBAqvp1aVJgPZ-1803" target="gbSmUv_tBAqvp1aVJgPZ-1794" edge="1">
          <mxGeometry width="50" height="50" relative="1" as="geometry">
            <mxPoint x="410" y="70" as="sourcePoint" />
            <mxPoint x="460" y="20" as="targetPoint" />
          </mxGeometry>
        </mxCell>
        <mxCell id="gbSmUv_tBAqvp1aVJgPZ-1892" value="Toilets" style="rounded=0;whiteSpace=wrap;html=1;direction=south;" parent="1" vertex="1">
          <mxGeometry x="930" y="-10" width="60" height="20" as="geometry" />
        </mxCell>
        <mxCell id="gbSmUv_tBAqvp1aVJgPZ-1893" value="Ent" style="rounded=1;whiteSpace=wrap;html=1;shadow=0;labelBackgroundColor=none;strokeColor=none;strokeWidth=3;fillColor=#2F5B7C;fontFamily=Helvetica;fontSize=16;fontColor=#FFFFFF;align=center;fontStyle=1;spacing=5;arcSize=7;perimeterSpacing=2;" parent="1" vertex="1">
          <mxGeometry x="950" y="10" width="40" height="30" as="geometry" />
        </mxCell>
        <mxCell id="gbSmUv_tBAqvp1aVJgPZ-1894" value="Node" style="rhombus;whiteSpace=wrap;html=1;rounded=0;strokeColor=#2F5B7C;fillColor=none;" parent="1" vertex="1">
          <mxGeometry x="882.5" y="5" width="40" height="40" as="geometry" />
        </mxCell>
        <mxCell id="gbSmUv_tBAqvp1aVJgPZ-1895" value="" style="endArrow=none;html=1;rounded=0;exitX=0;exitY=0.5;exitDx=0;exitDy=0;entryX=1;entryY=0.5;entryDx=0;entryDy=0;" parent="1" source="gbSmUv_tBAqvp1aVJgPZ-1893" target="gbSmUv_tBAqvp1aVJgPZ-1894" edge="1">
          <mxGeometry width="50" height="50" relative="1" as="geometry">
            <mxPoint x="870" y="60" as="sourcePoint" />
            <mxPoint x="920" y="10" as="targetPoint" />
          </mxGeometry>
        </mxCell>
        <mxCell id="gbSmUv_tBAqvp1aVJgPZ-1896" value="G48" style="rounded=0;whiteSpace=wrap;html=1;direction=south;" parent="1" vertex="1">
          <mxGeometry x="930" y="-90" width="60" height="80" as="geometry" />
        </mxCell>
        <mxCell id="gbSmUv_tBAqvp1aVJgPZ-1897" value="G49" style="rounded=0;whiteSpace=wrap;html=1;direction=south;" parent="1" vertex="1">
          <mxGeometry x="930" y="-160" width="60" height="70" as="geometry" />
        </mxCell>
        <mxCell id="gbSmUv_tBAqvp1aVJgPZ-1898" value="Lec Ent" style="rounded=1;whiteSpace=wrap;html=1;shadow=0;labelBackgroundColor=none;strokeColor=none;strokeWidth=3;fillColor=#2F5B7C;fontFamily=Helvetica;fontSize=16;fontColor=#FFFFFF;align=center;fontStyle=1;spacing=5;arcSize=7;perimeterSpacing=2;" parent="1" vertex="1">
          <mxGeometry x="950" y="-190" width="40" height="30" as="geometry" />
        </mxCell>
        <mxCell id="gbSmUv_tBAqvp1aVJgPZ-1899" value="Node" style="rhombus;whiteSpace=wrap;html=1;rounded=0;strokeColor=#2F5B7C;fillColor=none;" parent="1" vertex="1">
          <mxGeometry x="882.5" y="-195" width="40" height="40" as="geometry" />
        </mxCell>
        <mxCell id="gbSmUv_tBAqvp1aVJgPZ-1900" value="" style="endArrow=none;html=1;rounded=0;exitX=0.5;exitY=0;exitDx=0;exitDy=0;entryX=0.5;entryY=1;entryDx=0;entryDy=0;" parent="1" source="gbSmUv_tBAqvp1aVJgPZ-1894" target="gbSmUv_tBAqvp1aVJgPZ-1899" edge="1">
          <mxGeometry width="50" height="50" relative="1" as="geometry">
            <mxPoint x="910" y="-30" as="sourcePoint" />
            <mxPoint x="920" y="-90" as="targetPoint" />
          </mxGeometry>
        </mxCell>
        <mxCell id="gbSmUv_tBAqvp1aVJgPZ-1901" value="" style="endArrow=none;html=1;rounded=0;exitX=1;exitY=0.5;exitDx=0;exitDy=0;entryX=0;entryY=0.5;entryDx=0;entryDy=0;" parent="1" source="gbSmUv_tBAqvp1aVJgPZ-1899" target="gbSmUv_tBAqvp1aVJgPZ-1898" edge="1">
          <mxGeometry width="50" height="50" relative="1" as="geometry">
            <mxPoint x="910" y="-110" as="sourcePoint" />
            <mxPoint x="960" y="-160" as="targetPoint" />
          </mxGeometry>
        </mxCell>
        <mxCell id="gbSmUv_tBAqvp1aVJgPZ-1902" value="Lecture Theatre&lt;br&gt;G50" style="rounded=0;whiteSpace=wrap;html=1;strokeColor=#2F5B7C;fillColor=none;" parent="1" vertex="1">
          <mxGeometry x="930" y="-280" width="60" height="90" as="geometry" />
        </mxCell>
        <mxCell id="gbSmUv_tBAqvp1aVJgPZ-1903" value="Node" style="rhombus;whiteSpace=wrap;html=1;rounded=0;strokeColor=#2F5B7C;fillColor=none;" parent="1" vertex="1">
          <mxGeometry x="882.5" y="-250" width="40" height="40" as="geometry" />
        </mxCell>
        <mxCell id="gbSmUv_tBAqvp1aVJgPZ-1904" value="" style="endArrow=none;html=1;rounded=0;fontFamily=Helvetica;fontSize=12;fontColor=default;exitX=0.5;exitY=0;exitDx=0;exitDy=0;entryX=0.5;entryY=1;entryDx=0;entryDy=0;" parent="1" source="gbSmUv_tBAqvp1aVJgPZ-1899" target="gbSmUv_tBAqvp1aVJgPZ-1903" edge="1">
          <mxGeometry width="50" height="50" relative="1" as="geometry">
            <mxPoint x="860" y="-220" as="sourcePoint" />
            <mxPoint x="903" y="-220" as="targetPoint" />
          </mxGeometry>
        </mxCell>
        <mxCell id="gbSmUv_tBAqvp1aVJgPZ-1905" value="" style="endArrow=none;html=1;rounded=0;fontFamily=Helvetica;fontSize=12;fontColor=default;exitX=0.5;exitY=0;exitDx=0;exitDy=0;entryX=0.5;entryY=1;entryDx=0;entryDy=0;" parent="1" source="gbSmUv_tBAqvp1aVJgPZ-1883" target="gbSmUv_tBAqvp1aVJgPZ-1906" edge="1">
          <mxGeometry width="50" height="50" relative="1" as="geometry">
            <mxPoint x="820" y="140" as="sourcePoint" />
            <mxPoint x="790" y="80" as="targetPoint" />
          </mxGeometry>
        </mxCell>
        <mxCell id="gbSmUv_tBAqvp1aVJgPZ-1906" value="Node" style="rhombus;whiteSpace=wrap;html=1;rounded=0;strokeColor=#2F5B7C;fillColor=none;" parent="1" vertex="1">
          <mxGeometry x="770" y="5" width="40" height="40" as="geometry" />
        </mxCell>
        <mxCell id="gbSmUv_tBAqvp1aVJgPZ-1908" value="Node" style="rhombus;whiteSpace=wrap;html=1;rounded=0;strokeColor=#2F5B7C;fillColor=none;" parent="1" vertex="1">
          <mxGeometry x="770" y="-80" width="40" height="40" as="geometry" />
        </mxCell>
        <mxCell id="gbSmUv_tBAqvp1aVJgPZ-1909" value="" style="endArrow=none;html=1;rounded=0;fontFamily=Helvetica;fontSize=12;fontColor=default;entryX=0.5;entryY=1;entryDx=0;entryDy=0;exitX=0.5;exitY=0;exitDx=0;exitDy=0;" parent="1" source="gbSmUv_tBAqvp1aVJgPZ-1906" target="gbSmUv_tBAqvp1aVJgPZ-1908" edge="1">
          <mxGeometry width="50" height="50" relative="1" as="geometry">
            <mxPoint x="820" as="sourcePoint" />
            <mxPoint x="870" y="-50" as="targetPoint" />
          </mxGeometry>
        </mxCell>
        <mxCell id="gbSmUv_tBAqvp1aVJgPZ-1910" value="" style="endArrow=none;html=1;rounded=0;fontFamily=Helvetica;fontSize=12;fontColor=default;entryX=0.5;entryY=1;entryDx=0;entryDy=0;exitX=0.5;exitY=0;exitDx=0;exitDy=0;" parent="1" source="gbSmUv_tBAqvp1aVJgPZ-1908" target="gbSmUv_tBAqvp1aVJgPZ-1880" edge="1">
          <mxGeometry width="50" height="50" relative="1" as="geometry">
            <mxPoint x="820" y="-60" as="sourcePoint" />
            <mxPoint x="870" y="-110" as="targetPoint" />
          </mxGeometry>
        </mxCell>
        <mxCell id="gbSmUv_tBAqvp1aVJgPZ-1911" value="" style="endArrow=none;html=1;rounded=0;fontFamily=Helvetica;fontSize=12;fontColor=default;entryX=0;entryY=0.5;entryDx=0;entryDy=0;" parent="1" source="gbSmUv_tBAqvp1aVJgPZ-1848" target="gbSmUv_tBAqvp1aVJgPZ-1906" edge="1">
          <mxGeometry width="50" height="50" relative="1" as="geometry">
            <mxPoint x="770" y="100" as="sourcePoint" />
            <mxPoint x="870" y="80" as="targetPoint" />
          </mxGeometry>
        </mxCell>
        <mxCell id="8CyhJUhW_bh8TN33WHjR-1750" value="Atrium" style="ellipse;whiteSpace=wrap;html=1;fillColor=#d5e8d4;strokeColor=#82b366;opacity=50;rotation=90;" parent="1" vertex="1">
          <mxGeometry x="743.75" y="-7.5" width="320" height="33.75" as="geometry" />
        </mxCell>
        <mxCell id="8CyhJUhW_bh8TN33WHjR-1751" value="Stairs" style="rounded=0;whiteSpace=wrap;html=1;direction=south;" parent="1" vertex="1">
          <mxGeometry x="817.5" y="-300" width="60" height="60" as="geometry" />
        </mxCell>
        <mxCell id="8CyhJUhW_bh8TN33WHjR-1752" value="Node" style="rhombus;whiteSpace=wrap;html=1;rounded=0;strokeColor=#2F5B7C;fillColor=none;" parent="1" vertex="1">
          <mxGeometry x="770" y="-250" width="40" height="40" as="geometry" />
        </mxCell>
        <mxCell id="8CyhJUhW_bh8TN33WHjR-1753" value="" style="endArrow=none;html=1;rounded=0;entryX=0;entryY=0.5;entryDx=0;entryDy=0;exitX=1;exitY=0.5;exitDx=0;exitDy=0;" parent="1" source="8CyhJUhW_bh8TN33WHjR-1752" target="gbSmUv_tBAqvp1aVJgPZ-1903" edge="1">
          <mxGeometry width="50" height="50" relative="1" as="geometry">
            <mxPoint x="730" y="-180" as="sourcePoint" />
            <mxPoint x="780" y="-230" as="targetPoint" />
          </mxGeometry>
        </mxCell>
        <mxCell id="8CyhJUhW_bh8TN33WHjR-1754" value="" style="endArrow=none;html=1;rounded=0;entryX=0.5;entryY=1;entryDx=0;entryDy=0;exitX=0.5;exitY=0;exitDx=0;exitDy=0;" parent="1" source="gbSmUv_tBAqvp1aVJgPZ-1880" target="8CyhJUhW_bh8TN33WHjR-1752" edge="1">
          <mxGeometry width="50" height="50" relative="1" as="geometry">
            <mxPoint x="730" y="-180" as="sourcePoint" />
            <mxPoint x="780" y="-230" as="targetPoint" />
          </mxGeometry>
        </mxCell>
        <mxCell id="8CyhJUhW_bh8TN33WHjR-1755" value="" style="endArrow=none;html=1;rounded=0;entryX=0.5;entryY=0;entryDx=0;entryDy=0;exitX=0.515;exitY=0.944;exitDx=0;exitDy=0;exitPerimeter=0;" parent="1" source="8CyhJUhW_bh8TN33WHjR-1782" target="8CyhJUhW_bh8TN33WHjR-1752" edge="1">
          <mxGeometry width="50" height="50" relative="1" as="geometry">
            <mxPoint x="790" y="-310" as="sourcePoint" />
            <mxPoint x="760" y="-240" as="targetPoint" />
          </mxGeometry>
        </mxCell>
        <mxCell id="8CyhJUhW_bh8TN33WHjR-1756" value="Node" style="rhombus;whiteSpace=wrap;html=1;rounded=0;strokeColor=#2F5B7C;fillColor=none;" parent="1" vertex="1">
          <mxGeometry x="882.5" y="-315" width="40" height="40" as="geometry" />
        </mxCell>
        <mxCell id="8CyhJUhW_bh8TN33WHjR-1758" value="" style="endArrow=none;html=1;rounded=0;entryX=0.5;entryY=0;entryDx=0;entryDy=0;exitX=0.5;exitY=1;exitDx=0;exitDy=0;" parent="1" source="8CyhJUhW_bh8TN33WHjR-1756" target="gbSmUv_tBAqvp1aVJgPZ-1903" edge="1">
          <mxGeometry width="50" height="50" relative="1" as="geometry">
            <mxPoint x="800" y="-300" as="sourcePoint" />
            <mxPoint x="800" y="-240" as="targetPoint" />
            <Array as="points" />
          </mxGeometry>
        </mxCell>
        <mxCell id="8CyhJUhW_bh8TN33WHjR-1760" value="" style="endArrow=none;html=1;rounded=0;entryX=1;entryY=0.5;entryDx=0;entryDy=0;exitX=0;exitY=0.5;exitDx=0;exitDy=0;" parent="1" source="8CyhJUhW_bh8TN33WHjR-1761" target="8CyhJUhW_bh8TN33WHjR-1756" edge="1">
          <mxGeometry width="50" height="50" relative="1" as="geometry">
            <mxPoint x="1000" y="-300" as="sourcePoint" />
            <mxPoint x="970" y="-310" as="targetPoint" />
          </mxGeometry>
        </mxCell>
        <mxCell id="8CyhJUhW_bh8TN33WHjR-1761" value="Ent" style="rounded=1;whiteSpace=wrap;html=1;shadow=0;labelBackgroundColor=none;strokeColor=none;strokeWidth=3;fillColor=#2F5B7C;fontFamily=Helvetica;fontSize=16;fontColor=#FFFFFF;align=center;fontStyle=1;spacing=5;arcSize=7;perimeterSpacing=2;" parent="1" vertex="1">
          <mxGeometry x="950" y="-310" width="40" height="30" as="geometry" />
        </mxCell>
        <mxCell id="8CyhJUhW_bh8TN33WHjR-1762" value="Stairs&lt;div&gt;Lift&lt;/div&gt;" style="rounded=0;whiteSpace=wrap;html=1;direction=south;" parent="1" vertex="1">
          <mxGeometry x="880" y="-390" width="30" height="30" as="geometry" />
        </mxCell>
        <mxCell id="8CyhJUhW_bh8TN33WHjR-1763" value="" style="endArrow=none;html=1;rounded=0;entryX=1;entryY=0.5;entryDx=0;entryDy=0;exitX=0.304;exitY=0.183;exitDx=0;exitDy=0;exitPerimeter=0;" parent="1" source="8CyhJUhW_bh8TN33WHjR-1756" target="8CyhJUhW_bh8TN33WHjR-1762" edge="1">
          <mxGeometry width="50" height="50" relative="1" as="geometry">
            <mxPoint x="950" y="-280" as="sourcePoint" />
            <mxPoint x="1000" y="-330" as="targetPoint" />
          </mxGeometry>
        </mxCell>
        <mxCell id="8CyhJUhW_bh8TN33WHjR-1764" value="" style="endArrow=none;html=1;rounded=0;entryX=1;entryY=0;entryDx=0;entryDy=0;" parent="1" target="8CyhJUhW_bh8TN33WHjR-1756" edge="1">
          <mxGeometry width="50" height="50" relative="1" as="geometry">
            <mxPoint x="930" y="-340" as="sourcePoint" />
            <mxPoint x="1000" y="-330" as="targetPoint" />
          </mxGeometry>
        </mxCell>
        <mxCell id="8CyhJUhW_bh8TN33WHjR-1765" value="" style="endArrow=none;html=1;rounded=0;" parent="1" edge="1">
          <mxGeometry width="50" height="50" relative="1" as="geometry">
            <mxPoint x="930" y="-390" as="sourcePoint" />
            <mxPoint x="930" y="-340" as="targetPoint" />
          </mxGeometry>
        </mxCell>
        <mxCell id="8CyhJUhW_bh8TN33WHjR-1766" value="G51" style="rounded=0;whiteSpace=wrap;html=1;strokeColor=#2F5B7C;fillColor=none;" parent="1" vertex="1">
          <mxGeometry x="940" y="-380" width="50" height="70" as="geometry" />
        </mxCell>
        <mxCell id="8CyhJUhW_bh8TN33WHjR-1767" value="G52" style="rounded=0;whiteSpace=wrap;html=1;strokeColor=#2F5B7C;fillColor=none;" parent="1" vertex="1">
          <mxGeometry x="940" y="-413" width="50" height="33" as="geometry" />
        </mxCell>
        <mxCell id="8CyhJUhW_bh8TN33WHjR-1768" value="G53&lt;div&gt;HoY1&lt;/div&gt;" style="rounded=0;whiteSpace=wrap;html=1;strokeColor=#2F5B7C;fillColor=none;" parent="1" vertex="1">
          <mxGeometry x="940" y="-439" width="50" height="26" as="geometry" />
        </mxCell>
        <mxCell id="8CyhJUhW_bh8TN33WHjR-1769" value="G54" style="rounded=0;whiteSpace=wrap;html=1;strokeColor=#2F5B7C;fillColor=none;" parent="1" vertex="1">
          <mxGeometry x="940" y="-544" width="50" height="104" as="geometry" />
        </mxCell>
        <mxCell id="8CyhJUhW_bh8TN33WHjR-1771" value="Toilet" style="rounded=0;whiteSpace=wrap;html=1;strokeColor=#2F5B7C;fillColor=none;" parent="1" vertex="1">
          <mxGeometry x="830" y="-520" width="110" height="30" as="geometry" />
        </mxCell>
        <mxCell id="8CyhJUhW_bh8TN33WHjR-1774" value="" style="endArrow=none;html=1;rounded=0;strokeColor=#EA6B66;jumpSize=10;" parent="1" edge="1">
          <mxGeometry width="50" height="50" relative="1" as="geometry">
            <mxPoint x="820" y="-320" as="sourcePoint" />
            <mxPoint x="880" y="-320" as="targetPoint" />
          </mxGeometry>
        </mxCell>
        <mxCell id="8CyhJUhW_bh8TN33WHjR-1775" value="" style="endArrow=none;html=1;rounded=0;strokeColor=#EA6B66;jumpSize=10;" parent="1" edge="1">
          <mxGeometry width="50" height="50" relative="1" as="geometry">
            <mxPoint x="880" y="-360" as="sourcePoint" />
            <mxPoint x="880" y="-320" as="targetPoint" />
          </mxGeometry>
        </mxCell>
        <mxCell id="8CyhJUhW_bh8TN33WHjR-1776" value="" style="endArrow=none;html=1;rounded=0;strokeColor=#EA6B66;jumpSize=10;" parent="1" edge="1">
          <mxGeometry width="50" height="50" relative="1" as="geometry">
            <mxPoint x="840" y="-360" as="sourcePoint" />
            <mxPoint x="880" y="-360" as="targetPoint" />
          </mxGeometry>
        </mxCell>
        <mxCell id="8CyhJUhW_bh8TN33WHjR-1778" value="G55" style="rounded=0;whiteSpace=wrap;html=1;strokeColor=#2F5B7C;fillColor=none;" parent="1" vertex="1">
          <mxGeometry x="840" y="-400" width="40" height="40" as="geometry" />
        </mxCell>
        <mxCell id="8CyhJUhW_bh8TN33WHjR-1779" value="" style="endArrow=none;html=1;rounded=0;strokeColor=#EA6B66;jumpSize=10;exitX=0;exitY=0;exitDx=0;exitDy=0;entryX=0;entryY=0.25;entryDx=0;entryDy=0;" parent="1" source="8CyhJUhW_bh8TN33WHjR-1778" target="8CyhJUhW_bh8TN33WHjR-1781" edge="1">
          <mxGeometry width="50" height="50" relative="1" as="geometry">
            <mxPoint x="890" y="-350" as="sourcePoint" />
            <mxPoint x="690" y="-400" as="targetPoint" />
          </mxGeometry>
        </mxCell>
        <mxCell id="8CyhJUhW_bh8TN33WHjR-1780" value="" style="endArrow=none;html=1;rounded=0;strokeColor=#EA6B66;jumpSize=10;" parent="1" edge="1">
          <mxGeometry width="50" height="50" relative="1" as="geometry">
            <mxPoint x="660" y="-400" as="sourcePoint" />
            <mxPoint x="520" y="-400" as="targetPoint" />
          </mxGeometry>
        </mxCell>
        <mxCell id="8CyhJUhW_bh8TN33WHjR-1781" value="Ent" style="rounded=1;whiteSpace=wrap;html=1;shadow=0;labelBackgroundColor=none;strokeColor=none;strokeWidth=3;fillColor=#2F5B7C;fontFamily=Helvetica;fontSize=16;fontColor=#FFFFFF;align=center;fontStyle=1;spacing=5;arcSize=7;perimeterSpacing=2;rotation=-90;" parent="1" vertex="1">
          <mxGeometry x="650" y="-428.5" width="30" height="27" as="geometry" />
        </mxCell>
        <mxCell id="8CyhJUhW_bh8TN33WHjR-1782" value="Ent" style="rounded=1;whiteSpace=wrap;html=1;shadow=0;labelBackgroundColor=none;strokeColor=none;strokeWidth=3;fillColor=#2F5B7C;fontFamily=Helvetica;fontSize=16;fontColor=#FFFFFF;align=center;fontStyle=1;spacing=5;arcSize=7;perimeterSpacing=2;rotation=0;" parent="1" vertex="1">
          <mxGeometry x="775" y="-280" width="30" height="27" as="geometry" />
        </mxCell>
        <mxCell id="8CyhJUhW_bh8TN33WHjR-1783" value="" style="endArrow=none;html=1;rounded=0;strokeColor=#EA6B66;jumpSize=10;exitX=1;exitY=0.5;exitDx=0;exitDy=0;" parent="1" source="8CyhJUhW_bh8TN33WHjR-1784" edge="1">
          <mxGeometry width="50" height="50" relative="1" as="geometry">
            <mxPoint x="440" y="-250" as="sourcePoint" />
            <mxPoint x="760" y="-250" as="targetPoint" />
          </mxGeometry>
        </mxCell>
        <mxCell id="8CyhJUhW_bh8TN33WHjR-1784" value="" style="rounded=0;whiteSpace=wrap;html=1;" parent="1" vertex="1">
          <mxGeometry x="430" y="-260" width="30" height="20" as="geometry" />
        </mxCell>
        <mxCell id="8CyhJUhW_bh8TN33WHjR-1785" value="G65&lt;div&gt;Lab&lt;/div&gt;" style="rounded=0;whiteSpace=wrap;html=1;" parent="1" vertex="1">
          <mxGeometry x="430" y="-430" width="90" height="120" as="geometry" />
        </mxCell>
        <mxCell id="8CyhJUhW_bh8TN33WHjR-1786" value="" style="rounded=0;whiteSpace=wrap;html=1;" parent="1" vertex="1">
          <mxGeometry x="520" y="-430" width="20" height="30" as="geometry" />
        </mxCell>
        <mxCell id="8CyhJUhW_bh8TN33WHjR-1787" value="" style="rounded=0;whiteSpace=wrap;html=1;" parent="1" vertex="1">
          <mxGeometry x="540" y="-430" width="60" height="30" as="geometry" />
        </mxCell>
        <mxCell id="8CyhJUhW_bh8TN33WHjR-1788" value="" style="rounded=0;whiteSpace=wrap;html=1;" parent="1" vertex="1">
          <mxGeometry x="600" y="-430" width="52" height="30" as="geometry" />
        </mxCell>
        <mxCell id="8CyhJUhW_bh8TN33WHjR-1789" value="Stairs" style="rounded=0;whiteSpace=wrap;html=1;direction=south;" parent="1" vertex="1">
          <mxGeometry x="680" y="-430" width="32.5" height="30" as="geometry" />
        </mxCell>
        <mxCell id="8CyhJUhW_bh8TN33WHjR-1790" value="" style="rounded=0;whiteSpace=wrap;html=1;" parent="1" vertex="1">
          <mxGeometry x="712.5" y="-430" width="20" height="30" as="geometry" />
        </mxCell>
        <mxCell id="8CyhJUhW_bh8TN33WHjR-1791" value="" style="rounded=0;whiteSpace=wrap;html=1;" parent="1" vertex="1">
          <mxGeometry x="732.5" y="-430" width="107.5" height="30" as="geometry" />
        </mxCell>
        <mxCell id="8CyhJUhW_bh8TN33WHjR-1793" value="G56" style="rounded=0;whiteSpace=wrap;html=1;strokeColor=#2F5B7C;fillColor=none;" parent="1" vertex="1">
          <mxGeometry x="810" y="-490" width="50" height="30" as="geometry" />
        </mxCell>
        <mxCell id="8CyhJUhW_bh8TN33WHjR-1794" value="G57" style="rounded=0;whiteSpace=wrap;html=1;strokeColor=#2F5B7C;fillColor=none;" parent="1" vertex="1">
          <mxGeometry x="780" y="-510" width="30" height="50" as="geometry" />
        </mxCell>
        <mxCell id="8CyhJUhW_bh8TN33WHjR-1795" value="G58&lt;div&gt;Lab&lt;/div&gt;" style="rounded=0;whiteSpace=wrap;html=1;strokeColor=#2F5B7C;fillColor=none;" parent="1" vertex="1">
          <mxGeometry x="680" y="-510" width="100" height="50" as="geometry" />
        </mxCell>
        <mxCell id="8CyhJUhW_bh8TN33WHjR-1799" value="" style="rounded=0;whiteSpace=wrap;html=1;strokeColor=#2F5B7C;fillColor=none;" parent="1" vertex="1">
          <mxGeometry x="860" y="-490" width="20" height="30" as="geometry" />
        </mxCell>
        <mxCell id="8CyhJUhW_bh8TN33WHjR-1800" value="" style="rounded=0;whiteSpace=wrap;html=1;strokeColor=#2F5B7C;fillColor=none;" parent="1" vertex="1">
          <mxGeometry x="850" y="-460" width="30" height="20" as="geometry" />
        </mxCell>
        <mxCell id="8CyhJUhW_bh8TN33WHjR-1801" value="" style="rounded=0;whiteSpace=wrap;html=1;strokeColor=#2F5B7C;fillColor=none;" parent="1" vertex="1">
          <mxGeometry x="810" y="-520" width="20" height="30" as="geometry" />
        </mxCell>
        <mxCell id="8CyhJUhW_bh8TN33WHjR-1802" value="Dis" style="rounded=0;whiteSpace=wrap;html=1;strokeColor=#2F5B7C;fillColor=none;" parent="1" vertex="1">
          <mxGeometry x="918.75" y="-520" width="20" height="30" as="geometry" />
        </mxCell>
        <mxCell id="8CyhJUhW_bh8TN33WHjR-1803" value="Ent" style="rounded=1;whiteSpace=wrap;html=1;shadow=0;labelBackgroundColor=none;strokeColor=none;strokeWidth=3;fillColor=#2F5B7C;fontFamily=Helvetica;fontSize=16;fontColor=#FFFFFF;align=center;fontStyle=1;spacing=5;arcSize=7;perimeterSpacing=2;rotation=-90;" parent="1" vertex="1">
          <mxGeometry x="652" y="-510" width="30" height="27" as="geometry" />
        </mxCell>
        <mxCell id="8CyhJUhW_bh8TN33WHjR-1804" value="G58&lt;div&gt;Lab&lt;/div&gt;" style="rounded=0;whiteSpace=wrap;html=1;strokeColor=#2F5B7C;fillColor=none;" parent="1" vertex="1">
          <mxGeometry x="552" y="-510" width="100" height="50" as="geometry" />
        </mxCell>
        <mxCell id="8CyhJUhW_bh8TN33WHjR-1805" value="Node" style="rhombus;whiteSpace=wrap;html=1;rounded=0;strokeColor=#2F5B7C;fillColor=none;" parent="1" vertex="1">
          <mxGeometry x="652.5" y="-460" width="25" height="21.5" as="geometry" />
        </mxCell>
        <mxCell id="8CyhJUhW_bh8TN33WHjR-1806" value="" style="endArrow=none;html=1;rounded=0;" parent="1" edge="1">
          <mxGeometry width="50" height="50" relative="1" as="geometry">
            <mxPoint x="840" y="-440" as="sourcePoint" />
            <mxPoint x="930" y="-390" as="targetPoint" />
          </mxGeometry>
        </mxCell>
        <mxCell id="8CyhJUhW_bh8TN33WHjR-1807" value="" style="endArrow=none;html=1;rounded=0;entryX=1;entryY=0.5;entryDx=0;entryDy=0;" parent="1" target="8CyhJUhW_bh8TN33WHjR-1805" edge="1">
          <mxGeometry width="50" height="50" relative="1" as="geometry">
            <mxPoint x="840" y="-440" as="sourcePoint" />
            <mxPoint x="790" y="-400" as="targetPoint" />
          </mxGeometry>
        </mxCell>
        <mxCell id="8CyhJUhW_bh8TN33WHjR-1808" value="" style="endArrow=none;html=1;rounded=0;entryX=0.5;entryY=1;entryDx=0;entryDy=0;exitX=1;exitY=0.5;exitDx=0;exitDy=0;" parent="1" source="8CyhJUhW_bh8TN33WHjR-1781" target="8CyhJUhW_bh8TN33WHjR-1805" edge="1">
          <mxGeometry width="50" height="50" relative="1" as="geometry">
            <mxPoint x="680" y="-390" as="sourcePoint" />
            <mxPoint x="730" y="-440" as="targetPoint" />
          </mxGeometry>
        </mxCell>
        <mxCell id="8CyhJUhW_bh8TN33WHjR-1809" value="" style="endArrow=none;html=1;rounded=0;entryX=0;entryY=0.5;entryDx=0;entryDy=0;exitX=0.5;exitY=0;exitDx=0;exitDy=0;" parent="1" source="8CyhJUhW_bh8TN33WHjR-1805" target="8CyhJUhW_bh8TN33WHjR-1803" edge="1">
          <mxGeometry width="50" height="50" relative="1" as="geometry">
            <mxPoint x="675" y="-422" as="sourcePoint" />
            <mxPoint x="675" y="-428" as="targetPoint" />
          </mxGeometry>
        </mxCell>
        <mxCell id="8CyhJUhW_bh8TN33WHjR-1810" value="Node" style="rhombus;whiteSpace=wrap;html=1;rounded=0;strokeColor=#2F5B7C;fillColor=none;" parent="1" vertex="1">
          <mxGeometry x="361.25" y="-474.5" width="47.5" height="50.5" as="geometry" />
        </mxCell>
        <mxCell id="8CyhJUhW_bh8TN33WHjR-1811" value="" style="endArrow=none;html=1;rounded=0;entryX=0;entryY=0.5;entryDx=0;entryDy=0;exitX=1;exitY=0.5;exitDx=0;exitDy=0;" parent="1" source="8CyhJUhW_bh8TN33WHjR-1810" target="8CyhJUhW_bh8TN33WHjR-1805" edge="1">
          <mxGeometry width="50" height="50" relative="1" as="geometry">
            <mxPoint x="480" y="-370" as="sourcePoint" />
            <mxPoint x="530" y="-420" as="targetPoint" />
          </mxGeometry>
        </mxCell>
        <mxCell id="8CyhJUhW_bh8TN33WHjR-1812" value="" style="rounded=0;whiteSpace=wrap;html=1;" parent="1" vertex="1">
          <mxGeometry x="528" y="-477" width="22" height="10" as="geometry" />
        </mxCell>
        <mxCell id="8CyhJUhW_bh8TN33WHjR-1813" value="" style="rounded=0;whiteSpace=wrap;html=1;" parent="1" vertex="1">
          <mxGeometry x="506" y="-477" width="22" height="10" as="geometry" />
        </mxCell>
        <mxCell id="8CyhJUhW_bh8TN33WHjR-1816" value="G62" style="rounded=0;whiteSpace=wrap;html=1;" parent="1" vertex="1">
          <mxGeometry x="480" y="-517" width="70" height="40" as="geometry" />
        </mxCell>
        <mxCell id="8CyhJUhW_bh8TN33WHjR-1817" value="G63" style="rounded=0;whiteSpace=wrap;html=1;" parent="1" vertex="1">
          <mxGeometry x="408" y="-517" width="72" height="40" as="geometry" />
        </mxCell>
        <mxCell id="8CyhJUhW_bh8TN33WHjR-1818" value="G63" style="rounded=0;whiteSpace=wrap;html=1;" parent="1" vertex="1">
          <mxGeometry x="320" y="-517" width="88" height="40" as="geometry" />
        </mxCell>
        <mxCell id="8CyhJUhW_bh8TN33WHjR-1819" value="G63" style="rounded=0;whiteSpace=wrap;html=1;" parent="1" vertex="1">
          <mxGeometry x="232" y="-517" width="88" height="40" as="geometry" />
        </mxCell>
        <mxCell id="8CyhJUhW_bh8TN33WHjR-1820" value="Prep&lt;br&gt;G28" style="rounded=0;whiteSpace=wrap;html=1;" parent="1" vertex="1">
          <mxGeometry x="240" y="-130" width="40" height="92.5" as="geometry" />
        </mxCell>
        <mxCell id="8CyhJUhW_bh8TN33WHjR-1821" value="Prep&lt;br&gt;G29" style="rounded=0;whiteSpace=wrap;html=1;" parent="1" vertex="1">
          <mxGeometry x="130" y="-130" width="110" height="92.5" as="geometry" />
        </mxCell>
        <mxCell id="8CyhJUhW_bh8TN33WHjR-1822" value="G37" style="rounded=0;whiteSpace=wrap;html=1;" parent="1" vertex="1">
          <mxGeometry x="240" y="160" width="40" height="30" as="geometry" />
        </mxCell>
        <mxCell id="8CyhJUhW_bh8TN33WHjR-1823" value="G40" style="rounded=0;whiteSpace=wrap;html=1;" parent="1" vertex="1">
          <mxGeometry x="220" y="130" width="60" height="30" as="geometry" />
        </mxCell>
        <mxCell id="8CyhJUhW_bh8TN33WHjR-1824" value="G39&lt;div&gt;Bursar&lt;/div&gt;" style="rounded=0;whiteSpace=wrap;html=1;" parent="1" vertex="1">
          <mxGeometry x="170" y="130" width="50" height="30" as="geometry" />
        </mxCell>
        <mxCell id="8CyhJUhW_bh8TN33WHjR-1825" value="G38" style="rounded=0;whiteSpace=wrap;html=1;" parent="1" vertex="1">
          <mxGeometry x="170" y="160" width="50" height="31" as="geometry" />
        </mxCell>
        <mxCell id="8CyhJUhW_bh8TN33WHjR-1826" value="" style="rounded=0;whiteSpace=wrap;html=1;" parent="1" vertex="1">
          <mxGeometry x="220" y="160" width="20" height="31" as="geometry" />
        </mxCell>
        <mxCell id="8CyhJUhW_bh8TN33WHjR-1827" value="Node" style="rhombus;whiteSpace=wrap;html=1;" parent="1" vertex="1">
          <mxGeometry x="90" y="190" width="40" height="40" as="geometry" />
        </mxCell>
        <mxCell id="8CyhJUhW_bh8TN33WHjR-1828" value="" style="endArrow=none;html=1;rounded=0;exitX=0.5;exitY=1;exitDx=0;exitDy=0;" parent="1" source="7g-5XyvWssEIG0KanUl5-1858" edge="1">
          <mxGeometry width="50" height="50" relative="1" as="geometry">
            <mxPoint x="100" y="280" as="sourcePoint" />
            <mxPoint x="110" y="350" as="targetPoint" />
          </mxGeometry>
        </mxCell>
        <mxCell id="8CyhJUhW_bh8TN33WHjR-1829" value="Cloi" style="rounded=1;whiteSpace=wrap;html=1;shadow=0;labelBackgroundColor=none;strokeColor=none;strokeWidth=3;fillColor=#2F5B7C;fontFamily=Helvetica;fontSize=16;fontColor=#FFFFFF;align=center;fontStyle=1;spacing=5;arcSize=7;perimeterSpacing=2;" parent="1" vertex="1">
          <mxGeometry x="90" y="160" width="40" height="30" as="geometry" />
        </mxCell>
        <mxCell id="8CyhJUhW_bh8TN33WHjR-1830" value="" style="endArrow=none;html=1;rounded=0;entryX=0.5;entryY=0;entryDx=0;entryDy=0;exitX=0.5;exitY=1;exitDx=0;exitDy=0;" parent="1" source="8CyhJUhW_bh8TN33WHjR-1829" target="8CyhJUhW_bh8TN33WHjR-1827" edge="1">
          <mxGeometry width="50" height="50" relative="1" as="geometry">
            <mxPoint x="110" y="140" as="sourcePoint" />
            <mxPoint x="120" y="360" as="targetPoint" />
          </mxGeometry>
        </mxCell>
        <mxCell id="8CyhJUhW_bh8TN33WHjR-1832" value="" style="endArrow=none;html=1;rounded=0;strokeColor=#EA6B66;jumpSize=10;" parent="1" edge="1">
          <mxGeometry width="50" height="50" relative="1" as="geometry">
            <mxPoint x="-100" y="190" as="sourcePoint" />
            <mxPoint x="170" y="191.00000000000003" as="targetPoint" />
          </mxGeometry>
        </mxCell>
        <mxCell id="8CyhJUhW_bh8TN33WHjR-1833" value="" style="endArrow=none;html=1;rounded=0;strokeColor=#EA6B66;jumpSize=10;" parent="1" edge="1">
          <mxGeometry width="50" height="50" relative="1" as="geometry">
            <mxPoint x="-100" y="22.5" as="sourcePoint" />
            <mxPoint x="-100" y="-130" as="targetPoint" />
          </mxGeometry>
        </mxCell>
        <mxCell id="8CyhJUhW_bh8TN33WHjR-1834" value="" style="endArrow=none;html=1;rounded=0;strokeColor=#EA6B66;jumpSize=10;exitX=1;exitY=0;exitDx=0;exitDy=0;" parent="1" source="gbSmUv_tBAqvp1aVJgPZ-1820" edge="1">
          <mxGeometry width="50" height="50" relative="1" as="geometry">
            <mxPoint x="100" y="-60" as="sourcePoint" />
            <mxPoint x="-100" y="-130" as="targetPoint" />
          </mxGeometry>
        </mxCell>
        <mxCell id="8CyhJUhW_bh8TN33WHjR-1835" value="&lt;b&gt;CLOI&lt;/b&gt;" style="rhombus;whiteSpace=wrap;html=1;" parent="1" vertex="1">
          <mxGeometry x="90" y="17.5" width="40" height="40" as="geometry" />
        </mxCell>
        <mxCell id="8CyhJUhW_bh8TN33WHjR-1836" value="" style="endArrow=none;html=1;rounded=0;exitX=0.5;exitY=1;exitDx=0;exitDy=0;entryX=0.5;entryY=0;entryDx=0;entryDy=0;" parent="1" source="8CyhJUhW_bh8TN33WHjR-1835" target="8CyhJUhW_bh8TN33WHjR-1829" edge="1">
          <mxGeometry width="50" height="50" relative="1" as="geometry">
            <mxPoint x="40" y="40" as="sourcePoint" />
            <mxPoint x="40" y="160" as="targetPoint" />
          </mxGeometry>
        </mxCell>
        <mxCell id="8CyhJUhW_bh8TN33WHjR-1837" value="" style="endArrow=none;html=1;rounded=0;exitX=1;exitY=0.5;exitDx=0;exitDy=0;entryX=0;entryY=0.5;entryDx=0;entryDy=0;" parent="1" source="8CyhJUhW_bh8TN33WHjR-1835" target="gbSmUv_tBAqvp1aVJgPZ-1814" edge="1">
          <mxGeometry width="50" height="50" relative="1" as="geometry">
            <mxPoint x="120" y="68" as="sourcePoint" />
            <mxPoint x="120" y="168" as="targetPoint" />
            <Array as="points" />
          </mxGeometry>
        </mxCell>
        <mxCell id="8CyhJUhW_bh8TN33WHjR-1838" value="Cloi" style="rounded=1;whiteSpace=wrap;html=1;shadow=0;labelBackgroundColor=none;strokeColor=none;strokeWidth=3;fillColor=#2F5B7C;fontFamily=Helvetica;fontSize=16;fontColor=#FFFFFF;align=center;fontStyle=1;spacing=5;arcSize=7;perimeterSpacing=2;" parent="1" vertex="1">
          <mxGeometry x="90" y="-130" width="40" height="30" as="geometry" />
        </mxCell>
        <mxCell id="8CyhJUhW_bh8TN33WHjR-1839" value="" style="endArrow=none;html=1;rounded=0;exitX=0.5;exitY=1;exitDx=0;exitDy=0;entryX=0.5;entryY=0;entryDx=0;entryDy=0;" parent="1" source="8CyhJUhW_bh8TN33WHjR-1838" target="8CyhJUhW_bh8TN33WHjR-1835" edge="1">
          <mxGeometry width="50" height="50" relative="1" as="geometry">
            <mxPoint x="140" y="48" as="sourcePoint" />
            <mxPoint x="288" y="48" as="targetPoint" />
            <Array as="points" />
          </mxGeometry>
        </mxCell>
        <mxCell id="8CyhJUhW_bh8TN33WHjR-1841" value="" style="endArrow=none;html=1;rounded=0;exitX=1;exitY=0.5;exitDx=0;exitDy=0;entryX=0;entryY=0.5;entryDx=0;entryDy=0;" parent="1" source="8CyhJUhW_bh8TN33WHjR-1840" target="8CyhJUhW_bh8TN33WHjR-1835" edge="1">
          <mxGeometry width="50" height="50" relative="1" as="geometry">
            <mxPoint x="120" y="-88" as="sourcePoint" />
            <mxPoint x="120" y="28" as="targetPoint" />
            <Array as="points" />
          </mxGeometry>
        </mxCell>
        <mxCell id="8CyhJUhW_bh8TN33WHjR-1842" value="" style="endArrow=none;html=1;rounded=0;strokeColor=#EA6B66;jumpSize=10;" parent="1" edge="1">
          <mxGeometry width="50" height="50" relative="1" as="geometry">
            <mxPoint x="-100" y="191.5" as="sourcePoint" />
            <mxPoint x="-100" y="10" as="targetPoint" />
          </mxGeometry>
        </mxCell>
        <mxCell id="8CyhJUhW_bh8TN33WHjR-1840" value="Cloi" style="rounded=1;whiteSpace=wrap;html=1;shadow=0;labelBackgroundColor=none;strokeColor=none;strokeWidth=3;fillColor=#2F5B7C;fontFamily=Helvetica;fontSize=16;fontColor=#FFFFFF;align=center;fontStyle=1;spacing=5;arcSize=7;perimeterSpacing=2;" parent="1" vertex="1">
          <mxGeometry x="-100" y="22.5" width="40" height="30" as="geometry" />
        </mxCell>
        <mxCell id="8CyhJUhW_bh8TN33WHjR-1843" value="&lt;b&gt;Cloisters&lt;/b&gt;" style="ellipse;whiteSpace=wrap;html=1;rounded=0;strokeColor=#82b366;fillColor=#d5e8d4;opacity=50;" parent="1" vertex="1">
          <mxGeometry x="35" y="-21.25" width="150" height="117.5" as="geometry" />
        </mxCell>
        <mxCell id="7g-5XyvWssEIG0KanUl5-1749" value="G26" style="rounded=0;whiteSpace=wrap;html=1;" parent="1" vertex="1">
          <mxGeometry x="190" y="-240" width="80" height="60" as="geometry" />
        </mxCell>
        <mxCell id="7g-5XyvWssEIG0KanUl5-1750" value="Node" style="rhombus;whiteSpace=wrap;html=1;rounded=0;strokeColor=#2F5B7C;fillColor=none;" parent="1" vertex="1">
          <mxGeometry x="82.5" y="-180" width="55" height="50" as="geometry" />
        </mxCell>
        <mxCell id="7g-5XyvWssEIG0KanUl5-1751" value="Stair" style="rounded=0;whiteSpace=wrap;html=1;" parent="1" vertex="1">
          <mxGeometry x="160" y="-210" width="30" height="30" as="geometry" />
        </mxCell>
        <mxCell id="7g-5XyvWssEIG0KanUl5-1752" value="" style="rounded=0;whiteSpace=wrap;html=1;" parent="1" vertex="1">
          <mxGeometry x="160" y="-240" width="30" height="30" as="geometry" />
        </mxCell>
        <mxCell id="7g-5XyvWssEIG0KanUl5-1753" value="" style="rounded=0;whiteSpace=wrap;html=1;" parent="1" vertex="1">
          <mxGeometry x="80" y="-240" width="80" height="60" as="geometry" />
        </mxCell>
        <mxCell id="7g-5XyvWssEIG0KanUl5-1754" value="" style="rounded=0;whiteSpace=wrap;html=1;" parent="1" vertex="1">
          <mxGeometry x="50" y="-240" width="30" height="60" as="geometry" />
        </mxCell>
        <mxCell id="7g-5XyvWssEIG0KanUl5-1755" value="Toilets" style="rounded=0;whiteSpace=wrap;html=1;" parent="1" vertex="1">
          <mxGeometry x="-50" y="-240" width="100" height="60" as="geometry" />
        </mxCell>
        <mxCell id="7g-5XyvWssEIG0KanUl5-1756" value="Dis" style="rounded=0;whiteSpace=wrap;html=1;" parent="1" vertex="1">
          <mxGeometry x="-80" y="-200" width="30" height="20" as="geometry" />
        </mxCell>
        <mxCell id="7g-5XyvWssEIG0KanUl5-1759" value="" style="rounded=0;whiteSpace=wrap;html=1;" parent="1" vertex="1">
          <mxGeometry x="-80" y="-240" width="30" height="40" as="geometry" />
        </mxCell>
        <mxCell id="7g-5XyvWssEIG0KanUl5-1760" value="Node" style="rhombus;whiteSpace=wrap;html=1;rounded=0;strokeColor=#2F5B7C;fillColor=none;" parent="1" vertex="1">
          <mxGeometry x="-155" y="-180" width="55" height="50" as="geometry" />
        </mxCell>
        <mxCell id="7g-5XyvWssEIG0KanUl5-1761" value="" style="endArrow=none;html=1;rounded=0;entryX=1;entryY=0.5;entryDx=0;entryDy=0;exitX=0;exitY=0.5;exitDx=0;exitDy=0;" parent="1" source="7g-5XyvWssEIG0KanUl5-1750" target="7g-5XyvWssEIG0KanUl5-1760" edge="1">
          <mxGeometry width="50" height="50" relative="1" as="geometry">
            <mxPoint x="20" y="-150" as="sourcePoint" />
            <mxPoint x="-40" y="-150" as="targetPoint" />
          </mxGeometry>
        </mxCell>
        <mxCell id="7g-5XyvWssEIG0KanUl5-1762" value="Node" style="rhombus;whiteSpace=wrap;html=1;rounded=0;strokeColor=#2F5B7C;fillColor=none;" parent="1" vertex="1">
          <mxGeometry x="-145" y="40" width="35" height="30" as="geometry" />
        </mxCell>
        <mxCell id="7g-5XyvWssEIG0KanUl5-1763" value="" style="endArrow=none;html=1;rounded=0;entryX=0.5;entryY=1;entryDx=0;entryDy=0;exitX=0.5;exitY=0;exitDx=0;exitDy=0;" parent="1" source="7g-5XyvWssEIG0KanUl5-1762" target="7g-5XyvWssEIG0KanUl5-1760" edge="1">
          <mxGeometry width="50" height="50" relative="1" as="geometry">
            <mxPoint x="-123.75" y="-20" as="sourcePoint" />
            <mxPoint x="-131.25" y="-130" as="targetPoint" />
          </mxGeometry>
        </mxCell>
        <mxCell id="7g-5XyvWssEIG0KanUl5-1764" value="G72" style="rounded=0;whiteSpace=wrap;html=1;" parent="1" vertex="1">
          <mxGeometry x="-60" y="-340" width="70" height="50" as="geometry" />
        </mxCell>
        <mxCell id="7g-5XyvWssEIG0KanUl5-1765" value="G72" style="rounded=0;whiteSpace=wrap;html=1;" parent="1" vertex="1">
          <mxGeometry x="10" y="-340" width="70" height="50" as="geometry" />
        </mxCell>
        <mxCell id="7g-5XyvWssEIG0KanUl5-1766" value="" style="rounded=0;whiteSpace=wrap;html=1;" parent="1" vertex="1">
          <mxGeometry x="50" y="-360" width="30" height="20" as="geometry" />
        </mxCell>
        <mxCell id="7g-5XyvWssEIG0KanUl5-1767" value="" style="rounded=0;whiteSpace=wrap;html=1;" parent="1" vertex="1">
          <mxGeometry x="32.5" y="-406.5" width="50" height="26.5" as="geometry" />
        </mxCell>
        <mxCell id="7g-5XyvWssEIG0KanUl5-1768" value="G69" style="rounded=0;whiteSpace=wrap;html=1;" parent="1" vertex="1">
          <mxGeometry x="20" y="-450" width="62.5" height="43.5" as="geometry" />
        </mxCell>
        <mxCell id="7g-5XyvWssEIG0KanUl5-1769" value="G70" style="rounded=0;whiteSpace=wrap;html=1;" parent="1" vertex="1">
          <mxGeometry x="-40" y="-450" width="62.5" height="43.5" as="geometry" />
        </mxCell>
        <mxCell id="7g-5XyvWssEIG0KanUl5-1770" value="Stair" style="rounded=0;whiteSpace=wrap;html=1;" parent="1" vertex="1">
          <mxGeometry x="-40" y="-406.5" width="30" height="26.5" as="geometry" />
        </mxCell>
        <mxCell id="7g-5XyvWssEIG0KanUl5-1771" value="" style="rounded=0;whiteSpace=wrap;html=1;" parent="1" vertex="1">
          <mxGeometry x="-70" y="-430" width="30" height="50" as="geometry" />
        </mxCell>
        <mxCell id="7g-5XyvWssEIG0KanUl5-1772" value="G79&lt;div&gt;Workshop&lt;/div&gt;" style="rounded=0;whiteSpace=wrap;html=1;" parent="1" vertex="1">
          <mxGeometry x="-180" y="-430" width="110" height="50" as="geometry" />
        </mxCell>
        <mxCell id="7g-5XyvWssEIG0KanUl5-1773" value="G78&lt;div&gt;Workshop&lt;/div&gt;" style="rounded=0;whiteSpace=wrap;html=1;" parent="1" vertex="1">
          <mxGeometry x="-250" y="-430" width="70" height="90" as="geometry" />
        </mxCell>
        <mxCell id="7g-5XyvWssEIG0KanUl5-1774" value="G77&lt;div&gt;Workshop&lt;/div&gt;" style="rounded=0;whiteSpace=wrap;html=1;" parent="1" vertex="1">
          <mxGeometry x="-340" y="-430" width="90" height="70" as="geometry" />
        </mxCell>
        <mxCell id="7g-5XyvWssEIG0KanUl5-1775" value="G74" style="rounded=0;whiteSpace=wrap;html=1;" parent="1" vertex="1">
          <mxGeometry x="-180" y="-380" width="60" height="70" as="geometry" />
        </mxCell>
        <mxCell id="7g-5XyvWssEIG0KanUl5-1776" value="G76&lt;div&gt;DT&lt;br&gt;office&lt;/div&gt;" style="rounded=0;whiteSpace=wrap;html=1;" parent="1" vertex="1">
          <mxGeometry x="-340" y="-360" width="50" height="40" as="geometry" />
        </mxCell>
        <mxCell id="7g-5XyvWssEIG0KanUl5-1777" value="Stair" style="rounded=0;whiteSpace=wrap;html=1;" parent="1" vertex="1">
          <mxGeometry x="-330" y="-320" width="40" height="40" as="geometry" />
        </mxCell>
        <mxCell id="7g-5XyvWssEIG0KanUl5-1779" value="" style="rounded=0;whiteSpace=wrap;html=1;" parent="1" vertex="1">
          <mxGeometry x="-200" y="-340" width="20" height="30" as="geometry" />
        </mxCell>
        <mxCell id="7g-5XyvWssEIG0KanUl5-1780" value="G75" style="rounded=0;whiteSpace=wrap;html=1;rotation=90;" parent="1" vertex="1">
          <mxGeometry x="-232.8" y="-342.81" width="30" height="35.62" as="geometry" />
        </mxCell>
        <mxCell id="7g-5XyvWssEIG0KanUl5-1781" value="" style="rounded=0;whiteSpace=wrap;html=1;" parent="1" vertex="1">
          <mxGeometry x="-250" y="-340" width="20" height="20" as="geometry" />
        </mxCell>
        <mxCell id="7g-5XyvWssEIG0KanUl5-1784" value="" style="rounded=0;whiteSpace=wrap;html=1;" parent="1" vertex="1">
          <mxGeometry x="-250" y="-320" width="20" height="10" as="geometry" />
        </mxCell>
        <mxCell id="7g-5XyvWssEIG0KanUl5-1785" value="G73" style="rounded=0;whiteSpace=wrap;html=1;" parent="1" vertex="1">
          <mxGeometry x="-120" y="-360" width="40" height="50" as="geometry" />
        </mxCell>
        <mxCell id="7g-5XyvWssEIG0KanUl5-1786" value="G68&lt;div&gt;Geog&lt;/div&gt;&lt;div&gt;Office&lt;/div&gt;" style="rounded=0;whiteSpace=wrap;html=1;" parent="1" vertex="1">
          <mxGeometry x="82.5" y="-450" width="37.5" height="70" as="geometry" />
        </mxCell>
        <mxCell id="7g-5XyvWssEIG0KanUl5-1787" value="G67" style="rounded=0;whiteSpace=wrap;html=1;" parent="1" vertex="1">
          <mxGeometry x="120" y="-450" width="50" height="70" as="geometry" />
        </mxCell>
        <mxCell id="7g-5XyvWssEIG0KanUl5-1788" value="G64" style="rounded=0;whiteSpace=wrap;html=1;" parent="1" vertex="1">
          <mxGeometry x="190" y="-517" width="42" height="67" as="geometry" />
        </mxCell>
        <mxCell id="7g-5XyvWssEIG0KanUl5-1789" value="Stair" style="rounded=0;whiteSpace=wrap;html=1;" parent="1" vertex="1">
          <mxGeometry x="190" y="-411.5" width="30" height="30" as="geometry" />
        </mxCell>
        <mxCell id="7g-5XyvWssEIG0KanUl5-1790" value="G66" style="rounded=0;whiteSpace=wrap;html=1;" parent="1" vertex="1">
          <mxGeometry x="192.5" y="-340" width="87.5" height="50" as="geometry" />
        </mxCell>
        <mxCell id="7g-5XyvWssEIG0KanUl5-1791" value="Ent" style="rounded=1;whiteSpace=wrap;html=1;shadow=0;labelBackgroundColor=none;strokeColor=none;strokeWidth=3;fillColor=#2F5B7C;fontFamily=Helvetica;fontSize=16;fontColor=#FFFFFF;align=center;fontStyle=1;spacing=5;arcSize=7;perimeterSpacing=2;rotation=-90;" parent="1" vertex="1">
          <mxGeometry x="162.5" y="-450" width="30" height="27" as="geometry" />
        </mxCell>
        <mxCell id="7g-5XyvWssEIG0KanUl5-1793" value="" style="endArrow=none;html=1;rounded=0;entryX=0.5;entryY=0;entryDx=0;entryDy=0;exitX=0.5;exitY=1;exitDx=0;exitDy=0;" parent="1" source="8CyhJUhW_bh8TN33WHjR-1810" target="7g-5XyvWssEIG0KanUl5-1792" edge="1">
          <mxGeometry width="50" height="50" relative="1" as="geometry">
            <mxPoint x="385" y="-424" as="sourcePoint" />
            <mxPoint x="385" y="-180" as="targetPoint" />
          </mxGeometry>
        </mxCell>
        <mxCell id="7g-5XyvWssEIG0KanUl5-1792" value="Node" style="rhombus;whiteSpace=wrap;html=1;rounded=0;strokeColor=#2F5B7C;fillColor=none;" parent="1" vertex="1">
          <mxGeometry x="361.25" y="-393.31" width="47.5" height="50.5" as="geometry" />
        </mxCell>
        <mxCell id="7g-5XyvWssEIG0KanUl5-1795" value="" style="endArrow=none;html=1;rounded=0;entryX=0;entryY=0.5;entryDx=0;entryDy=0;exitX=1;exitY=0;exitDx=0;exitDy=0;" parent="1" source="7g-5XyvWssEIG0KanUl5-1796" target="7g-5XyvWssEIG0KanUl5-1792" edge="1">
          <mxGeometry width="50" height="50" relative="1" as="geometry">
            <mxPoint x="210" y="-368" as="sourcePoint" />
            <mxPoint x="250" y="-320" as="targetPoint" />
          </mxGeometry>
        </mxCell>
        <mxCell id="7g-5XyvWssEIG0KanUl5-1796" value="Node" style="rhombus;whiteSpace=wrap;html=1;rounded=0;strokeColor=#2F5B7C;fillColor=none;" parent="1" vertex="1">
          <mxGeometry x="162.5" y="-373.31" width="30.62" height="27.19" as="geometry" />
        </mxCell>
        <mxCell id="7g-5XyvWssEIG0KanUl5-1797" value="" style="endArrow=none;html=1;rounded=0;entryX=0.088;entryY=0.516;entryDx=0;entryDy=0;entryPerimeter=0;exitX=0.5;exitY=0;exitDx=0;exitDy=0;" parent="1" source="7g-5XyvWssEIG0KanUl5-1796" target="7g-5XyvWssEIG0KanUl5-1791" edge="1">
          <mxGeometry width="50" height="50" relative="1" as="geometry">
            <mxPoint x="200" y="-270" as="sourcePoint" />
            <mxPoint x="250" y="-320" as="targetPoint" />
          </mxGeometry>
        </mxCell>
        <mxCell id="7g-5XyvWssEIG0KanUl5-1798" value="" style="endArrow=none;html=1;rounded=0;entryX=0;entryY=1;entryDx=0;entryDy=0;exitX=0.637;exitY=0.149;exitDx=0;exitDy=0;exitPerimeter=0;" parent="1" source="7g-5XyvWssEIG0KanUl5-1796" target="7g-5XyvWssEIG0KanUl5-1789" edge="1">
          <mxGeometry width="50" height="50" relative="1" as="geometry">
            <mxPoint x="185" y="-373" as="sourcePoint" />
            <mxPoint x="250" y="-400" as="targetPoint" />
          </mxGeometry>
        </mxCell>
        <mxCell id="7g-5XyvWssEIG0KanUl5-1801" value="Node" style="rhombus;whiteSpace=wrap;html=1;rounded=0;strokeColor=#2F5B7C;fillColor=none;" parent="1" vertex="1">
          <mxGeometry x="-40" y="-373.31" width="30" height="30.5" as="geometry" />
        </mxCell>
        <mxCell id="7g-5XyvWssEIG0KanUl5-1804" value="" style="endArrow=none;html=1;rounded=0;entryX=0.5;entryY=0;entryDx=0;entryDy=0;exitX=0;exitY=0.5;exitDx=0;exitDy=0;" parent="1" source="7g-5XyvWssEIG0KanUl5-1801" target="7g-5XyvWssEIG0KanUl5-1805" edge="1">
          <mxGeometry width="50" height="50" relative="1" as="geometry">
            <mxPoint x="-70" y="-360" as="sourcePoint" />
            <mxPoint x="-70" y="-280" as="targetPoint" />
            <Array as="points">
              <mxPoint x="-70" y="-358" />
            </Array>
          </mxGeometry>
        </mxCell>
        <mxCell id="7g-5XyvWssEIG0KanUl5-1805" value="Node" style="rhombus;whiteSpace=wrap;html=1;rounded=0;strokeColor=#2F5B7C;fillColor=none;" parent="1" vertex="1">
          <mxGeometry x="-84.38" y="-287.5" width="34.38" height="35" as="geometry" />
        </mxCell>
        <mxCell id="7g-5XyvWssEIG0KanUl5-1806" value="" style="endArrow=none;html=1;rounded=0;entryX=0.5;entryY=1;entryDx=0;entryDy=0;exitX=0.5;exitY=0;exitDx=0;exitDy=0;" parent="1" source="7g-5XyvWssEIG0KanUl5-1801" target="7g-5XyvWssEIG0KanUl5-1770" edge="1">
          <mxGeometry width="50" height="50" relative="1" as="geometry">
            <mxPoint x="-10" y="-250" as="sourcePoint" />
            <mxPoint x="40" y="-300" as="targetPoint" />
          </mxGeometry>
        </mxCell>
        <mxCell id="7g-5XyvWssEIG0KanUl5-1808" value="" style="endArrow=none;html=1;rounded=0;entryX=0.5;entryY=0;entryDx=0;entryDy=0;exitX=0.5;exitY=1;exitDx=0;exitDy=0;" parent="1" source="7g-5XyvWssEIG0KanUl5-1792" target="7g-5XyvWssEIG0KanUl5-1807" edge="1">
          <mxGeometry width="50" height="50" relative="1" as="geometry">
            <mxPoint x="385" y="-343" as="sourcePoint" />
            <mxPoint x="385" y="-180" as="targetPoint" />
          </mxGeometry>
        </mxCell>
        <mxCell id="7g-5XyvWssEIG0KanUl5-1807" value="Node" style="rhombus;whiteSpace=wrap;html=1;rounded=0;strokeColor=#2F5B7C;fillColor=none;" parent="1" vertex="1">
          <mxGeometry x="362.5" y="-303.5" width="47.5" height="50.5" as="geometry" />
        </mxCell>
        <mxCell id="7g-5XyvWssEIG0KanUl5-1809" value="" style="endArrow=none;html=1;rounded=0;entryX=0;entryY=0.5;entryDx=0;entryDy=0;exitX=1;exitY=0.5;exitDx=0;exitDy=0;" parent="1" source="uEwHEvehHXahFJ2oK5lq-1753" target="7g-5XyvWssEIG0KanUl5-1807" edge="1">
          <mxGeometry width="50" height="50" relative="1" as="geometry">
            <mxPoint x="50" y="-260" as="sourcePoint" />
            <mxPoint x="280" y="-260" as="targetPoint" />
            <Array as="points">
              <mxPoint x="270" y="-270" />
            </Array>
          </mxGeometry>
        </mxCell>
        <mxCell id="7g-5XyvWssEIG0KanUl5-1810" value="" style="endArrow=none;html=1;rounded=0;strokeColor=#EA6B66;jumpSize=10;exitX=0;exitY=0;exitDx=0;exitDy=0;entryX=1;entryY=1;entryDx=0;entryDy=0;" parent="1" source="7g-5XyvWssEIG0KanUl5-1790" target="7g-5XyvWssEIG0KanUl5-1766" edge="1">
          <mxGeometry width="50" height="50" relative="1" as="geometry">
            <mxPoint x="252.5" y="-280.2" as="sourcePoint" />
            <mxPoint x="22.5" y="-280.4" as="targetPoint" />
          </mxGeometry>
        </mxCell>
        <mxCell id="7g-5XyvWssEIG0KanUl5-1811" value="Ent" style="rounded=1;whiteSpace=wrap;html=1;shadow=0;labelBackgroundColor=none;strokeColor=none;strokeWidth=3;fillColor=#2F5B7C;fontFamily=Helvetica;fontSize=16;fontColor=#FFFFFF;align=center;fontStyle=1;spacing=5;arcSize=7;perimeterSpacing=2;rotation=0;" parent="1" vertex="1">
          <mxGeometry x="120" y="-340" width="30" height="27" as="geometry" />
        </mxCell>
        <mxCell id="7g-5XyvWssEIG0KanUl5-1814" value="" style="endArrow=none;html=1;rounded=0;entryX=0;entryY=0.5;entryDx=0;entryDy=0;" parent="1" source="7g-5XyvWssEIG0KanUl5-1801" target="7g-5XyvWssEIG0KanUl5-1813" edge="1">
          <mxGeometry width="50" height="50" relative="1" as="geometry">
            <mxPoint x="-11" y="-359" as="sourcePoint" />
            <mxPoint x="170" y="-367" as="targetPoint" />
            <Array as="points">
              <mxPoint x="60" y="-370" />
            </Array>
          </mxGeometry>
        </mxCell>
        <mxCell id="7g-5XyvWssEIG0KanUl5-1813" value="Node" style="rhombus;whiteSpace=wrap;html=1;rounded=0;strokeColor=#2F5B7C;fillColor=none;" parent="1" vertex="1">
          <mxGeometry x="120" y="-373.31" width="30.62" height="27.19" as="geometry" />
        </mxCell>
        <mxCell id="7g-5XyvWssEIG0KanUl5-1815" value="" style="endArrow=none;html=1;rounded=0;entryX=1;entryY=0.5;entryDx=0;entryDy=0;exitX=0;exitY=0.5;exitDx=0;exitDy=0;" parent="1" source="7g-5XyvWssEIG0KanUl5-1796" target="7g-5XyvWssEIG0KanUl5-1813" edge="1">
          <mxGeometry width="50" height="50" relative="1" as="geometry">
            <mxPoint x="192" y="-359" as="sourcePoint" />
            <mxPoint x="200" y="-371" as="targetPoint" />
          </mxGeometry>
        </mxCell>
        <mxCell id="7g-5XyvWssEIG0KanUl5-1816" value="" style="endArrow=none;html=1;rounded=0;entryX=0.5;entryY=1;entryDx=0;entryDy=0;exitX=0.5;exitY=0;exitDx=0;exitDy=0;" parent="1" source="7g-5XyvWssEIG0KanUl5-1811" target="7g-5XyvWssEIG0KanUl5-1813" edge="1">
          <mxGeometry width="50" height="50" relative="1" as="geometry">
            <mxPoint x="173" y="-350" as="sourcePoint" />
            <mxPoint x="160" y="-356" as="targetPoint" />
          </mxGeometry>
        </mxCell>
        <mxCell id="7g-5XyvWssEIG0KanUl5-1818" value="Node" style="rhombus;whiteSpace=wrap;html=1;rounded=0;strokeColor=#2F5B7C;fillColor=none;" parent="1" vertex="1">
          <mxGeometry x="-284.38" y="-317.5" width="34.38" height="35" as="geometry" />
        </mxCell>
        <mxCell id="7g-5XyvWssEIG0KanUl5-1819" value="" style="endArrow=none;html=1;rounded=0;entryX=0;entryY=0.5;entryDx=0;entryDy=0;exitX=1;exitY=0.5;exitDx=0;exitDy=0;" parent="1" source="7g-5XyvWssEIG0KanUl5-1823" target="7g-5XyvWssEIG0KanUl5-1805" edge="1">
          <mxGeometry width="50" height="50" relative="1" as="geometry">
            <mxPoint x="-60" y="-340" as="sourcePoint" />
            <mxPoint x="-57" y="-288" as="targetPoint" />
            <Array as="points">
              <mxPoint x="-90" y="-280" />
            </Array>
          </mxGeometry>
        </mxCell>
        <mxCell id="7g-5XyvWssEIG0KanUl5-1821" value="" style="endArrow=none;html=1;rounded=0;exitX=0.5;exitY=0;exitDx=0;exitDy=0;entryX=0.804;entryY=0.986;entryDx=0;entryDy=0;entryPerimeter=0;" parent="1" source="7g-5XyvWssEIG0KanUl5-1818" target="7g-5XyvWssEIG0KanUl5-1774" edge="1">
          <mxGeometry width="50" height="50" relative="1" as="geometry">
            <mxPoint x="-140" y="-200" as="sourcePoint" />
            <mxPoint x="-272" y="-360" as="targetPoint" />
          </mxGeometry>
        </mxCell>
        <mxCell id="7g-5XyvWssEIG0KanUl5-1822" value="" style="endArrow=none;html=1;rounded=0;exitX=0.5;exitY=0;exitDx=0;exitDy=0;entryX=0.5;entryY=1;entryDx=0;entryDy=0;" parent="1" source="7g-5XyvWssEIG0KanUl5-1847" target="7g-5XyvWssEIG0KanUl5-1823" edge="1">
          <mxGeometry width="50" height="50" relative="1" as="geometry">
            <mxPoint x="-40" y="-190" as="sourcePoint" />
            <mxPoint x="-130" y="-280" as="targetPoint" />
          </mxGeometry>
        </mxCell>
        <mxCell id="7g-5XyvWssEIG0KanUl5-1824" value="" style="endArrow=none;html=1;rounded=0;entryX=0;entryY=0.5;entryDx=0;entryDy=0;exitX=1;exitY=0.5;exitDx=0;exitDy=0;" parent="1" source="7g-5XyvWssEIG0KanUl5-1818" target="7g-5XyvWssEIG0KanUl5-1823" edge="1">
          <mxGeometry width="50" height="50" relative="1" as="geometry">
            <mxPoint x="-250" y="-278" as="sourcePoint" />
            <mxPoint x="-84" y="-280" as="targetPoint" />
            <Array as="points">
              <mxPoint x="-250" y="-280" />
            </Array>
          </mxGeometry>
        </mxCell>
        <mxCell id="7g-5XyvWssEIG0KanUl5-1823" value="Node" style="rhombus;whiteSpace=wrap;html=1;rounded=0;strokeColor=#2F5B7C;fillColor=none;" parent="1" vertex="1">
          <mxGeometry x="-144.69" y="-297.75" width="34.38" height="35" as="geometry" />
        </mxCell>
        <mxCell id="7g-5XyvWssEIG0KanUl5-1826" value="" style="endArrow=none;html=1;rounded=0;strokeColor=#EA6B66;jumpSize=10;" parent="1" edge="1">
          <mxGeometry width="50" height="50" relative="1" as="geometry">
            <mxPoint x="-150" y="-253" as="sourcePoint" />
            <mxPoint x="-360" y="-253" as="targetPoint" />
          </mxGeometry>
        </mxCell>
        <mxCell id="7g-5XyvWssEIG0KanUl5-1828" value="" style="rounded=0;whiteSpace=wrap;html=1;" parent="1" vertex="1">
          <mxGeometry x="-202.8" y="-220" width="55" height="30" as="geometry" />
        </mxCell>
        <mxCell id="7g-5XyvWssEIG0KanUl5-1830" value="&lt;b&gt;North Gym&lt;/b&gt;" style="rounded=0;whiteSpace=wrap;html=1;" parent="1" vertex="1">
          <mxGeometry x="-390" y="-220" width="187.2" height="110" as="geometry" />
        </mxCell>
        <mxCell id="7g-5XyvWssEIG0KanUl5-1831" value="" style="rounded=0;whiteSpace=wrap;html=1;" parent="1" vertex="1">
          <mxGeometry x="-202.8" y="-140" width="55" height="10" as="geometry" />
        </mxCell>
        <mxCell id="7g-5XyvWssEIG0KanUl5-1832" value="" style="endArrow=none;html=1;rounded=0;entryX=0;entryY=0.5;entryDx=0;entryDy=0;" parent="1" target="7g-5XyvWssEIG0KanUl5-1760" edge="1">
          <mxGeometry width="50" height="50" relative="1" as="geometry">
            <mxPoint x="-180" y="-160" as="sourcePoint" />
            <mxPoint x="-150" y="-190" as="targetPoint" />
          </mxGeometry>
        </mxCell>
        <mxCell id="7g-5XyvWssEIG0KanUl5-1833" value="" style="endArrow=none;html=1;rounded=0;exitX=0.5;exitY=0;exitDx=0;exitDy=0;" parent="1" source="7g-5XyvWssEIG0KanUl5-1831" edge="1">
          <mxGeometry width="50" height="50" relative="1" as="geometry">
            <mxPoint x="-170" y="-145" as="sourcePoint" />
            <mxPoint x="-180" y="-160" as="targetPoint" />
          </mxGeometry>
        </mxCell>
        <mxCell id="7g-5XyvWssEIG0KanUl5-1834" value="" style="rounded=0;whiteSpace=wrap;html=1;" parent="1" vertex="1">
          <mxGeometry x="-202.8" y="-130" width="22.8" height="20" as="geometry" />
        </mxCell>
        <mxCell id="7g-5XyvWssEIG0KanUl5-1835" value="Chg" style="rounded=0;whiteSpace=wrap;html=1;" parent="1" vertex="1">
          <mxGeometry x="-180.6" y="-130" width="32.8" height="80" as="geometry" />
        </mxCell>
        <mxCell id="7g-5XyvWssEIG0KanUl5-1836" value="" style="rounded=0;whiteSpace=wrap;html=1;" parent="1" vertex="1">
          <mxGeometry x="-180" y="-50" width="32.2" height="20" as="geometry" />
        </mxCell>
        <mxCell id="7g-5XyvWssEIG0KanUl5-1837" value="" style="rounded=0;whiteSpace=wrap;html=1;" parent="1" vertex="1">
          <mxGeometry x="-210" y="-110" width="29.4" height="80" as="geometry" />
        </mxCell>
        <mxCell id="7g-5XyvWssEIG0KanUl5-1838" value="" style="rounded=0;whiteSpace=wrap;html=1;" parent="1" vertex="1">
          <mxGeometry x="-240" y="-110" width="30" height="80" as="geometry" />
        </mxCell>
        <mxCell id="7g-5XyvWssEIG0KanUl5-1839" value="G81" style="rounded=0;whiteSpace=wrap;html=1;" parent="1" vertex="1">
          <mxGeometry x="-210" y="-30" width="62.2" height="50" as="geometry" />
        </mxCell>
        <mxCell id="7g-5XyvWssEIG0KanUl5-1840" value="Staff Toilets" style="rounded=0;whiteSpace=wrap;html=1;" parent="1" vertex="1">
          <mxGeometry x="-210" y="20" width="62.2" height="30" as="geometry" />
        </mxCell>
        <mxCell id="7g-5XyvWssEIG0KanUl5-1841" value="" style="rounded=0;whiteSpace=wrap;html=1;" parent="1" vertex="1">
          <mxGeometry x="-272.2" y="20" width="62.2" height="30" as="geometry" />
        </mxCell>
        <mxCell id="7g-5XyvWssEIG0KanUl5-1842" value="" style="rounded=0;whiteSpace=wrap;html=1;" parent="1" vertex="1">
          <mxGeometry x="-300" y="20" width="27.8" height="30" as="geometry" />
        </mxCell>
        <mxCell id="7g-5XyvWssEIG0KanUl5-1843" value="G85" style="rounded=0;whiteSpace=wrap;html=1;" parent="1" vertex="1">
          <mxGeometry x="-410" y="20" width="80" height="30" as="geometry" />
        </mxCell>
        <mxCell id="7g-5XyvWssEIG0KanUl5-1844" value="" style="endArrow=none;html=1;rounded=0;entryX=0;entryY=0;entryDx=0;entryDy=0;exitX=1;exitY=0;exitDx=0;exitDy=0;fillColor=#dae8fc;strokeColor=#6c8ebf;" parent="1" source="7g-5XyvWssEIG0KanUl5-1843" target="7g-5XyvWssEIG0KanUl5-1842" edge="1">
          <mxGeometry width="50" height="50" relative="1" as="geometry">
            <mxPoint x="-290" y="60" as="sourcePoint" />
            <mxPoint x="-240" y="10" as="targetPoint" />
          </mxGeometry>
        </mxCell>
        <mxCell id="7g-5XyvWssEIG0KanUl5-1846" value="Ent" style="rounded=1;whiteSpace=wrap;html=1;shadow=0;labelBackgroundColor=none;strokeColor=none;strokeWidth=3;fillColor=#2F5B7C;fontFamily=Helvetica;fontSize=16;fontColor=#FFFFFF;align=center;fontStyle=1;spacing=5;arcSize=7;perimeterSpacing=2;rotation=0;" parent="1" vertex="1">
          <mxGeometry x="-177.8" y="-253" width="30" height="33" as="geometry" />
        </mxCell>
        <mxCell id="7g-5XyvWssEIG0KanUl5-1848" value="" style="endArrow=none;html=1;rounded=0;exitX=0.5;exitY=0;exitDx=0;exitDy=0;entryX=0.5;entryY=1;entryDx=0;entryDy=0;" parent="1" source="7g-5XyvWssEIG0KanUl5-1760" target="7g-5XyvWssEIG0KanUl5-1847" edge="1">
          <mxGeometry width="50" height="50" relative="1" as="geometry">
            <mxPoint x="-127" y="-180" as="sourcePoint" />
            <mxPoint x="-127" y="-263" as="targetPoint" />
          </mxGeometry>
        </mxCell>
        <mxCell id="7g-5XyvWssEIG0KanUl5-1847" value="Node" style="rhombus;whiteSpace=wrap;html=1;rounded=0;strokeColor=#2F5B7C;fillColor=none;" parent="1" vertex="1">
          <mxGeometry x="-144.69" y="-254" width="34.38" height="35" as="geometry" />
        </mxCell>
        <mxCell id="7g-5XyvWssEIG0KanUl5-1849" value="" style="endArrow=none;html=1;rounded=0;exitX=0;exitY=0.5;exitDx=0;exitDy=0;entryX=1;entryY=0.5;entryDx=0;entryDy=0;" parent="1" source="7g-5XyvWssEIG0KanUl5-1847" target="7g-5XyvWssEIG0KanUl5-1846" edge="1">
          <mxGeometry width="50" height="50" relative="1" as="geometry">
            <mxPoint x="-117" y="-242" as="sourcePoint" />
            <mxPoint x="-117" y="-253" as="targetPoint" />
          </mxGeometry>
        </mxCell>
        <mxCell id="7g-5XyvWssEIG0KanUl5-1850" value="" style="endArrow=none;html=1;rounded=0;entryX=0;entryY=0.5;entryDx=0;entryDy=0;" parent="1" source="uEwHEvehHXahFJ2oK5lq-1782" target="7g-5XyvWssEIG0KanUl5-1846" edge="1">
          <mxGeometry width="50" height="50" relative="1" as="geometry">
            <mxPoint x="-380" y="-236" as="sourcePoint" />
            <mxPoint x="-300" y="-210" as="targetPoint" />
          </mxGeometry>
        </mxCell>
        <mxCell id="7g-5XyvWssEIG0KanUl5-1851" value="" style="endArrow=none;html=1;rounded=0;entryX=1;entryY=0.5;entryDx=0;entryDy=0;exitX=0;exitY=0.5;exitDx=0;exitDy=0;" parent="1" source="7g-5XyvWssEIG0KanUl5-1854" target="7g-5XyvWssEIG0KanUl5-1807" edge="1">
          <mxGeometry width="50" height="50" relative="1" as="geometry">
            <mxPoint x="550" y="-190" as="sourcePoint" />
            <mxPoint x="600" y="-240" as="targetPoint" />
          </mxGeometry>
        </mxCell>
        <mxCell id="7g-5XyvWssEIG0KanUl5-1853" value="" style="endArrow=none;html=1;rounded=0;entryX=0;entryY=0.5;entryDx=0;entryDy=0;exitX=0.5;exitY=0;exitDx=0;exitDy=0;" parent="1" source="7g-5XyvWssEIG0KanUl5-1854" target="8CyhJUhW_bh8TN33WHjR-1781" edge="1">
          <mxGeometry width="50" height="50" relative="1" as="geometry">
            <mxPoint x="665" y="-320" as="sourcePoint" />
            <mxPoint x="620" y="-320" as="targetPoint" />
          </mxGeometry>
        </mxCell>
        <mxCell id="7g-5XyvWssEIG0KanUl5-1855" value="" style="endArrow=none;html=1;rounded=0;entryX=1;entryY=0.5;entryDx=0;entryDy=0;exitX=0.136;exitY=0.128;exitDx=0;exitDy=0;exitPerimeter=0;" parent="1" source="8CyhJUhW_bh8TN33WHjR-1782" target="7g-5XyvWssEIG0KanUl5-1854" edge="1">
          <mxGeometry width="50" height="50" relative="1" as="geometry">
            <mxPoint x="778" y="-278" as="sourcePoint" />
            <mxPoint x="410" y="-278" as="targetPoint" />
          </mxGeometry>
        </mxCell>
        <mxCell id="7g-5XyvWssEIG0KanUl5-1854" value="Node" style="rhombus;whiteSpace=wrap;html=1;rounded=0;strokeColor=#2F5B7C;fillColor=none;" parent="1" vertex="1">
          <mxGeometry x="645" y="-300" width="40" height="40" as="geometry" />
        </mxCell>
        <mxCell id="7g-5XyvWssEIG0KanUl5-1856" value="" style="endArrow=none;html=1;rounded=0;exitX=0;exitY=1;exitDx=0;exitDy=0;fillColor=#f8cecc;strokeColor=#b85450;" parent="1" source="gbSmUv_tBAqvp1aVJgPZ-1753" edge="1">
          <mxGeometry width="50" height="50" relative="1" as="geometry">
            <mxPoint x="220" y="260" as="sourcePoint" />
            <mxPoint x="210" y="230" as="targetPoint" />
          </mxGeometry>
        </mxCell>
        <mxCell id="7g-5XyvWssEIG0KanUl5-1857" value="" style="endArrow=none;html=1;rounded=0;fillColor=#f8cecc;strokeColor=#b85450;" parent="1" edge="1">
          <mxGeometry width="50" height="50" relative="1" as="geometry">
            <mxPoint x="70" y="230" as="sourcePoint" />
            <mxPoint x="210" y="230" as="targetPoint" />
          </mxGeometry>
        </mxCell>
        <mxCell id="7g-5XyvWssEIG0KanUl5-1859" value="" style="endArrow=none;html=1;rounded=0;exitX=0.5;exitY=1;exitDx=0;exitDy=0;" parent="1" source="8CyhJUhW_bh8TN33WHjR-1827" target="7g-5XyvWssEIG0KanUl5-1858" edge="1">
          <mxGeometry width="50" height="50" relative="1" as="geometry">
            <mxPoint x="110" y="230" as="sourcePoint" />
            <mxPoint x="110" y="350" as="targetPoint" />
          </mxGeometry>
        </mxCell>
        <mxCell id="7g-5XyvWssEIG0KanUl5-1858" value="Cloi&lt;div&gt;Ent&lt;/div&gt;" style="rounded=1;whiteSpace=wrap;html=1;shadow=0;labelBackgroundColor=none;strokeColor=none;strokeWidth=3;fillColor=#2F5B7C;fontFamily=Helvetica;fontSize=16;fontColor=#FFFFFF;align=center;fontStyle=1;spacing=5;arcSize=7;perimeterSpacing=2;" parent="1" vertex="1">
          <mxGeometry x="90" y="230" width="40" height="30" as="geometry" />
        </mxCell>
        <mxCell id="7g-5XyvWssEIG0KanUl5-1860" value="G92" style="rounded=0;whiteSpace=wrap;html=1;" parent="1" vertex="1">
          <mxGeometry x="10" y="230" width="60" height="30" as="geometry" />
        </mxCell>
        <mxCell id="7g-5XyvWssEIG0KanUl5-1861" value="G91" style="rounded=0;whiteSpace=wrap;html=1;" parent="1" vertex="1">
          <mxGeometry x="-100" y="230" width="110" height="30" as="geometry" />
        </mxCell>
        <mxCell id="7g-5XyvWssEIG0KanUl5-1863" value="" style="endArrow=none;html=1;rounded=0;strokeColor=#EA6B66;jumpSize=10;" parent="1" edge="1">
          <mxGeometry width="50" height="50" relative="1" as="geometry">
            <mxPoint x="-100" y="450" as="sourcePoint" />
            <mxPoint x="-100" y="230" as="targetPoint" />
          </mxGeometry>
        </mxCell>
        <mxCell id="7g-5XyvWssEIG0KanUl5-1864" value="" style="endArrow=none;html=1;rounded=0;strokeColor=#EA6B66;jumpSize=10;" parent="1" edge="1">
          <mxGeometry width="50" height="50" relative="1" as="geometry">
            <mxPoint x="-148" y="450" as="sourcePoint" />
            <mxPoint x="-150" y="260" as="targetPoint" />
          </mxGeometry>
        </mxCell>
        <mxCell id="7g-5XyvWssEIG0KanUl5-1865" value="Stairs" style="rounded=0;whiteSpace=wrap;html=1;" parent="1" vertex="1">
          <mxGeometry x="-202.8" y="270" width="52.2" height="50" as="geometry" />
        </mxCell>
        <mxCell id="7g-5XyvWssEIG0KanUl5-1867" value="" style="rounded=0;whiteSpace=wrap;html=1;" parent="1" vertex="1">
          <mxGeometry x="-410" y="60" width="260" height="180" as="geometry" />
        </mxCell>
        <mxCell id="7g-5XyvWssEIG0KanUl5-1868" value="Dis" style="rounded=0;whiteSpace=wrap;html=1;" parent="1" vertex="1">
          <mxGeometry x="-195.6" y="60" width="45" height="30" as="geometry" />
        </mxCell>
        <mxCell id="7g-5XyvWssEIG0KanUl5-1869" value="Lift" style="rounded=0;whiteSpace=wrap;html=1;" parent="1" vertex="1">
          <mxGeometry x="-195" y="209.69" width="45" height="30" as="geometry" />
        </mxCell>
        <mxCell id="7g-5XyvWssEIG0KanUl5-1870" value="Toilet" style="rounded=0;whiteSpace=wrap;html=1;" parent="1" vertex="1">
          <mxGeometry x="-520" y="20" width="80" height="30" as="geometry" />
        </mxCell>
        <mxCell id="7g-5XyvWssEIG0KanUl5-1871" value="Dis" style="rounded=0;whiteSpace=wrap;html=1;" parent="1" vertex="1">
          <mxGeometry x="-520" y="10" width="80" height="10" as="geometry" />
        </mxCell>
        <mxCell id="7g-5XyvWssEIG0KanUl5-1872" value="G86" style="rounded=0;whiteSpace=wrap;html=1;" parent="1" vertex="1">
          <mxGeometry x="-520" y="50" width="70" height="30" as="geometry" />
        </mxCell>
        <mxCell id="7g-5XyvWssEIG0KanUl5-1873" value="Stairs&lt;div&gt;Lift&lt;/div&gt;" style="rounded=0;whiteSpace=wrap;html=1;" parent="1" vertex="1">
          <mxGeometry x="-500" y="95" width="50" height="43.75" as="geometry" />
        </mxCell>
        <mxCell id="7g-5XyvWssEIG0KanUl5-1874" value="G86" style="rounded=0;whiteSpace=wrap;html=1;" parent="1" vertex="1">
          <mxGeometry x="-500" y="138.75" width="50" height="31.25" as="geometry" />
        </mxCell>
        <mxCell id="7g-5XyvWssEIG0KanUl5-1875" value="G88" style="rounded=0;whiteSpace=wrap;html=1;" parent="1" vertex="1">
          <mxGeometry x="-500" y="170" width="50" height="30" as="geometry" />
        </mxCell>
        <mxCell id="7g-5XyvWssEIG0KanUl5-1876" value="" style="rounded=0;whiteSpace=wrap;html=1;" parent="1" vertex="1">
          <mxGeometry x="-500" y="200.63" width="50" height="3.75" as="geometry" />
        </mxCell>
        <mxCell id="7g-5XyvWssEIG0KanUl5-1877" value="" style="rounded=0;whiteSpace=wrap;html=1;" parent="1" vertex="1">
          <mxGeometry x="-500" y="205.63" width="50" height="3.75" as="geometry" />
        </mxCell>
        <mxCell id="7g-5XyvWssEIG0KanUl5-1879" value="G89" style="rounded=0;whiteSpace=wrap;html=1;" parent="1" vertex="1">
          <mxGeometry x="-500" y="209.38" width="50" height="30.62" as="geometry" />
        </mxCell>
        <mxCell id="7g-5XyvWssEIG0KanUl5-1882" value="Ent" style="rounded=1;whiteSpace=wrap;html=1;shadow=0;labelBackgroundColor=none;strokeColor=none;strokeWidth=3;fillColor=#2F5B7C;fontFamily=Helvetica;fontSize=16;fontColor=#FFFFFF;align=center;fontStyle=1;spacing=5;arcSize=7;perimeterSpacing=2;rotation=0;" parent="1" vertex="1">
          <mxGeometry x="-530" y="80" width="30" height="20" as="geometry" />
        </mxCell>
        <mxCell id="7g-5XyvWssEIG0KanUl5-1884" value="" style="endArrow=none;html=1;rounded=0;entryX=0.037;entryY=0.488;entryDx=0;entryDy=0;exitX=1;exitY=0.5;exitDx=0;exitDy=0;entryPerimeter=0;" parent="1" source="7g-5XyvWssEIG0KanUl5-1762" target="8CyhJUhW_bh8TN33WHjR-1840" edge="1">
          <mxGeometry width="50" height="50" relative="1" as="geometry">
            <mxPoint x="-110" y="110" as="sourcePoint" />
            <mxPoint x="-60" y="60" as="targetPoint" />
          </mxGeometry>
        </mxCell>
        <mxCell id="7g-5XyvWssEIG0KanUl5-1885" value="Node" style="rhombus;whiteSpace=wrap;html=1;rounded=0;strokeColor=#2F5B7C;fillColor=none;" parent="1" vertex="1">
          <mxGeometry x="-445" y="40" width="35" height="30" as="geometry" />
        </mxCell>
        <mxCell id="7g-5XyvWssEIG0KanUl5-1886" value="" style="endArrow=none;html=1;rounded=0;entryX=1;entryY=0.5;entryDx=0;entryDy=0;exitX=0;exitY=0.5;exitDx=0;exitDy=0;" parent="1" source="7g-5XyvWssEIG0KanUl5-1762" target="7g-5XyvWssEIG0KanUl5-1885" edge="1">
          <mxGeometry width="50" height="50" relative="1" as="geometry">
            <mxPoint x="-100" y="65" as="sourcePoint" />
            <mxPoint x="-90" y="47" as="targetPoint" />
          </mxGeometry>
        </mxCell>
        <mxCell id="7g-5XyvWssEIG0KanUl5-1889" value="" style="endArrow=none;html=1;rounded=0;entryX=0;entryY=0;entryDx=0;entryDy=0;exitX=1;exitY=0;exitDx=0;exitDy=0;fillColor=#dae8fc;strokeColor=#6c8ebf;" parent="1" edge="1">
          <mxGeometry width="50" height="50" relative="1" as="geometry">
            <mxPoint x="-440" y="20" as="sourcePoint" />
            <mxPoint x="-410" y="20" as="targetPoint" />
          </mxGeometry>
        </mxCell>
        <mxCell id="7g-5XyvWssEIG0KanUl5-1890" value="Node" style="rhombus;whiteSpace=wrap;html=1;rounded=0;strokeColor=#2F5B7C;fillColor=none;" parent="1" vertex="1">
          <mxGeometry x="-445" y="70" width="35" height="30" as="geometry" />
        </mxCell>
        <mxCell id="7g-5XyvWssEIG0KanUl5-1891" value="" style="endArrow=none;html=1;rounded=0;entryX=0;entryY=0.5;entryDx=0;entryDy=0;exitX=0.908;exitY=0.298;exitDx=0;exitDy=0;exitPerimeter=0;" parent="1" source="7g-5XyvWssEIG0KanUl5-1882" target="7g-5XyvWssEIG0KanUl5-1890" edge="1">
          <mxGeometry width="50" height="50" relative="1" as="geometry">
            <mxPoint x="-420" y="140" as="sourcePoint" />
            <mxPoint x="-370" y="90" as="targetPoint" />
          </mxGeometry>
        </mxCell>
        <mxCell id="7g-5XyvWssEIG0KanUl5-1892" value="" style="rounded=0;whiteSpace=wrap;html=1;" parent="1" vertex="1">
          <mxGeometry x="-230" y="270" width="27.2" height="50" as="geometry" />
        </mxCell>
        <mxCell id="7g-5XyvWssEIG0KanUl5-1894" value="" style="rounded=0;whiteSpace=wrap;html=1;" parent="1" vertex="1">
          <mxGeometry x="-257.2" y="270" width="27.2" height="50" as="geometry" />
        </mxCell>
        <mxCell id="7g-5XyvWssEIG0KanUl5-1895" value="WashUp" style="rounded=0;whiteSpace=wrap;html=1;" parent="1" vertex="1">
          <mxGeometry x="-410" y="270" width="100" height="50" as="geometry" />
        </mxCell>
        <mxCell id="7g-5XyvWssEIG0KanUl5-1896" value="" style="endArrow=none;html=1;rounded=0;strokeColor=#EA6B66;jumpSize=10;entryX=0;entryY=0;entryDx=0;entryDy=0;" parent="1" target="7g-5XyvWssEIG0KanUl5-1895" edge="1">
          <mxGeometry width="50" height="50" relative="1" as="geometry">
            <mxPoint x="-410" y="400" as="sourcePoint" />
            <mxPoint x="-412" y="260" as="targetPoint" />
          </mxGeometry>
        </mxCell>
        <mxCell id="7g-5XyvWssEIG0KanUl5-1897" value="" style="endArrow=none;html=1;rounded=0;strokeColor=#EA6B66;jumpSize=10;" parent="1" edge="1">
          <mxGeometry width="50" height="50" relative="1" as="geometry">
            <mxPoint x="-540" y="400" as="sourcePoint" />
            <mxPoint x="-410" y="400" as="targetPoint" />
          </mxGeometry>
        </mxCell>
        <mxCell id="7g-5XyvWssEIG0KanUl5-1898" value="G93" style="rounded=0;whiteSpace=wrap;html=1;" parent="1" vertex="1">
          <mxGeometry x="-537.5" y="404" width="45" height="20" as="geometry" />
        </mxCell>
        <mxCell id="7g-5XyvWssEIG0KanUl5-1899" value="" style="rounded=0;whiteSpace=wrap;html=1;" parent="1" vertex="1">
          <mxGeometry x="-537.5" y="424" width="67.5" height="76" as="geometry" />
        </mxCell>
        <mxCell id="7g-5XyvWssEIG0KanUl5-1900" value="" style="rounded=0;whiteSpace=wrap;html=1;" parent="1" vertex="1">
          <mxGeometry x="-470" y="424" width="40" height="26" as="geometry" />
        </mxCell>
        <mxCell id="7g-5XyvWssEIG0KanUl5-1902" value="Kitchen" style="rounded=0;whiteSpace=wrap;html=1;" parent="1" vertex="1">
          <mxGeometry x="-470" y="450" width="320" height="50" as="geometry" />
        </mxCell>
        <mxCell id="7g-5XyvWssEIG0KanUl5-1905" value="" style="endArrow=none;html=1;rounded=0;strokeColor=#EA6B66;jumpSize=10;entryX=1;entryY=1;entryDx=0;entryDy=0;" parent="1" target="7g-5XyvWssEIG0KanUl5-1902" edge="1">
          <mxGeometry width="50" height="50" relative="1" as="geometry">
            <mxPoint x="-100" y="450" as="sourcePoint" />
            <mxPoint x="-90" y="240" as="targetPoint" />
          </mxGeometry>
        </mxCell>
        <mxCell id="7g-5XyvWssEIG0KanUl5-1909" value="" style="endArrow=none;html=1;rounded=0;fillColor=#dae8fc;strokeColor=#6c8ebf;" parent="1" edge="1">
          <mxGeometry width="50" height="50" relative="1" as="geometry">
            <mxPoint x="-100" y="310" as="sourcePoint" />
            <mxPoint x="-100" y="270" as="targetPoint" />
          </mxGeometry>
        </mxCell>
        <mxCell id="7g-5XyvWssEIG0KanUl5-1910" value="&lt;b&gt;Dining Hall&lt;/b&gt;" style="ellipse;whiteSpace=wrap;html=1;rounded=0;strokeColor=#82b366;fillColor=#d5e8d4;opacity=50;" parent="1" vertex="1">
          <mxGeometry x="-360" y="330" width="150" height="117.5" as="geometry" />
        </mxCell>
        <mxCell id="7g-5XyvWssEIG0KanUl5-1911" value="&lt;b&gt;CourtYard&lt;/b&gt;" style="ellipse;whiteSpace=wrap;html=1;rounded=0;strokeColor=#82b366;fillColor=#d5e8d4;opacity=50;" parent="1" vertex="1">
          <mxGeometry x="607.5" y="-387.19" width="120" height="80" as="geometry" />
        </mxCell>
        <mxCell id="7g-5XyvWssEIG0KanUl5-1914" value="" style="endArrow=none;html=1;rounded=0;entryX=0;entryY=1;entryDx=0;entryDy=0;exitX=1;exitY=1;exitDx=0;exitDy=0;fillColor=#f8cecc;strokeColor=#b85450;" parent="1" source="7g-5XyvWssEIG0KanUl5-1879" target="7g-5XyvWssEIG0KanUl5-1867" edge="1">
          <mxGeometry width="50" height="50" relative="1" as="geometry">
            <mxPoint x="-330" y="270" as="sourcePoint" />
            <mxPoint x="-280" y="220" as="targetPoint" />
          </mxGeometry>
        </mxCell>
        <mxCell id="7g-5XyvWssEIG0KanUl5-1915" value="" style="endArrow=none;html=1;rounded=0;entryX=0;entryY=1;entryDx=0;entryDy=0;exitX=1;exitY=1;exitDx=0;exitDy=0;fillColor=#f8cecc;strokeColor=#b85450;" parent="1" edge="1">
          <mxGeometry width="50" height="50" relative="1" as="geometry">
            <mxPoint x="-450" y="270" as="sourcePoint" />
            <mxPoint x="-410" y="270" as="targetPoint" />
          </mxGeometry>
        </mxCell>
        <mxCell id="7g-5XyvWssEIG0KanUl5-1916" value="Ent" style="rounded=1;whiteSpace=wrap;html=1;shadow=0;labelBackgroundColor=none;strokeColor=none;strokeWidth=3;fillColor=#2F5B7C;fontFamily=Helvetica;fontSize=16;fontColor=#FFFFFF;align=center;fontStyle=1;spacing=5;arcSize=7;perimeterSpacing=2;rotation=0;" parent="1" vertex="1">
          <mxGeometry x="-440" y="238.5" width="30" height="33" as="geometry" />
        </mxCell>
        <mxCell id="7g-5XyvWssEIG0KanUl5-1917" value="Node" style="rhombus;whiteSpace=wrap;html=1;rounded=0;strokeColor=#2F5B7C;fillColor=none;" parent="1" vertex="1">
          <mxGeometry x="-145.31" y="240" width="35" height="30" as="geometry" />
        </mxCell>
        <mxCell id="7g-5XyvWssEIG0KanUl5-1918" value="" style="endArrow=none;html=1;rounded=0;entryX=0.5;entryY=1;entryDx=0;entryDy=0;exitX=0.5;exitY=0;exitDx=0;exitDy=0;" parent="1" source="7g-5XyvWssEIG0KanUl5-1917" target="7g-5XyvWssEIG0KanUl5-1762" edge="1">
          <mxGeometry width="50" height="50" relative="1" as="geometry">
            <mxPoint x="-210" y="240" as="sourcePoint" />
            <mxPoint x="-160" y="190" as="targetPoint" />
          </mxGeometry>
        </mxCell>
        <mxCell id="7g-5XyvWssEIG0KanUl5-1919" value="Node" style="rhombus;whiteSpace=wrap;html=1;rounded=0;strokeColor=#2F5B7C;fillColor=none;" parent="1" vertex="1">
          <mxGeometry x="-300" y="241.5" width="35" height="30" as="geometry" />
        </mxCell>
        <mxCell id="7g-5XyvWssEIG0KanUl5-1920" value="" style="endArrow=none;html=1;rounded=0;entryX=0;entryY=0.5;entryDx=0;entryDy=0;exitX=1;exitY=0.5;exitDx=0;exitDy=0;" parent="1" source="7g-5XyvWssEIG0KanUl5-1919" target="7g-5XyvWssEIG0KanUl5-1917" edge="1">
          <mxGeometry width="50" height="50" relative="1" as="geometry">
            <mxPoint x="-210" y="240" as="sourcePoint" />
            <mxPoint x="-160" y="190" as="targetPoint" />
          </mxGeometry>
        </mxCell>
        <mxCell id="7g-5XyvWssEIG0KanUl5-1921" value="" style="endArrow=none;html=1;rounded=0;entryX=1;entryY=0.5;entryDx=0;entryDy=0;exitX=0;exitY=0.5;exitDx=0;exitDy=0;" parent="1" source="7g-5XyvWssEIG0KanUl5-1919" target="7g-5XyvWssEIG0KanUl5-1916" edge="1">
          <mxGeometry width="50" height="50" relative="1" as="geometry">
            <mxPoint x="-255" y="267" as="sourcePoint" />
            <mxPoint x="-135" y="265" as="targetPoint" />
          </mxGeometry>
        </mxCell>
        <mxCell id="7g-5XyvWssEIG0KanUl5-1922" value="" style="endArrow=none;html=1;rounded=0;entryX=0.5;entryY=1;entryDx=0;entryDy=0;fillColor=#dae8fc;strokeColor=#6c8ebf;" parent="1" target="7g-5XyvWssEIG0KanUl5-1919" edge="1">
          <mxGeometry width="50" height="50" relative="1" as="geometry">
            <mxPoint x="-282" y="300" as="sourcePoint" />
            <mxPoint x="-110" y="270" as="targetPoint" />
          </mxGeometry>
        </mxCell>
        <mxCell id="7g-5XyvWssEIG0KanUl5-1923" value="" style="endArrow=none;html=1;rounded=0;fillColor=#dae8fc;strokeColor=#000000;entryX=0.5;entryY=1;entryDx=0;entryDy=0;" parent="1" target="7g-5XyvWssEIG0KanUl5-1917" edge="1">
          <mxGeometry width="50" height="50" relative="1" as="geometry">
            <mxPoint x="-160" y="420" as="sourcePoint" />
            <mxPoint x="-90" y="280" as="targetPoint" />
            <Array as="points">
              <mxPoint x="-128" y="420" />
            </Array>
          </mxGeometry>
        </mxCell>
        <mxCell id="7g-5XyvWssEIG0KanUl5-1924" value="" style="endArrow=none;html=1;rounded=0;fillColor=#dae8fc;strokeColor=#6c8ebf;" parent="1" edge="1">
          <mxGeometry width="50" height="50" relative="1" as="geometry">
            <mxPoint x="-128.01" y="310" as="sourcePoint" />
            <mxPoint x="-128.01" y="270" as="targetPoint" />
          </mxGeometry>
        </mxCell>
        <mxCell id="7g-5XyvWssEIG0KanUl5-1925" value="" style="endArrow=none;html=1;rounded=0;" parent="1" edge="1">
          <mxGeometry width="50" height="50" relative="1" as="geometry">
            <mxPoint x="-130" y="290" as="sourcePoint" />
            <mxPoint x="10" y="290" as="targetPoint" />
          </mxGeometry>
        </mxCell>
        <mxCell id="7g-5XyvWssEIG0KanUl5-1926" value="" style="endArrow=none;html=1;rounded=0;fillColor=#f8cecc;strokeColor=#b85450;" parent="1" edge="1">
          <mxGeometry width="50" height="50" relative="1" as="geometry">
            <mxPoint x="-100" y="329.51" as="sourcePoint" />
            <mxPoint x="40" y="329.51" as="targetPoint" />
          </mxGeometry>
        </mxCell>
        <mxCell id="7g-5XyvWssEIG0KanUl5-1927" value="Main Schl&lt;br&gt;Queue" style="rounded=0;whiteSpace=wrap;html=1;" parent="1" vertex="1">
          <mxGeometry x="-29.85" y="271.5" width="42.2" height="40" as="geometry" />
        </mxCell>
        <mxCell id="7g-5XyvWssEIG0KanUl5-1929" value="" style="endArrow=none;html=1;rounded=0;strokeColor=#EA6B66;jumpSize=10;entryX=0;entryY=0;entryDx=0;entryDy=0;" parent="1" edge="1">
          <mxGeometry width="50" height="50" relative="1" as="geometry">
            <mxPoint x="-475.2" y="400" as="sourcePoint" />
            <mxPoint x="-475.2" y="270" as="targetPoint" />
          </mxGeometry>
        </mxCell>
        <mxCell id="7g-5XyvWssEIG0KanUl5-1930" value="Lowr Schl&lt;br&gt;Queue" style="rounded=0;whiteSpace=wrap;html=1;" parent="1" vertex="1">
          <mxGeometry x="-470" y="275" width="42.2" height="40" as="geometry" />
        </mxCell>
        <mxCell id="7g-5XyvWssEIG0KanUl5-1931" value="" style="endArrow=none;html=1;rounded=0;entryX=0.5;entryY=1;entryDx=0;entryDy=0;" parent="1" target="7g-5XyvWssEIG0KanUl5-1930" edge="1">
          <mxGeometry width="50" height="50" relative="1" as="geometry">
            <mxPoint x="-400" y="380" as="sourcePoint" />
            <mxPoint x="-250" y="350" as="targetPoint" />
            <Array as="points">
              <mxPoint x="-450" y="380" />
            </Array>
          </mxGeometry>
        </mxCell>
        <mxCell id="7g-5XyvWssEIG0KanUl5-1933" value="" style="endArrow=none;html=1;rounded=0;fillColor=#dae8fc;strokeColor=#6c8ebf;" parent="1" edge="1">
          <mxGeometry width="50" height="50" relative="1" as="geometry">
            <mxPoint x="-410" y="402.75" as="sourcePoint" />
            <mxPoint x="-410" y="360" as="targetPoint" />
          </mxGeometry>
        </mxCell>
        <mxCell id="uEwHEvehHXahFJ2oK5lq-1750" value="" style="endArrow=none;html=1;rounded=0;entryX=0;entryY=0.5;entryDx=0;entryDy=0;exitX=1;exitY=0.5;exitDx=0;exitDy=0;" parent="1" source="7g-5XyvWssEIG0KanUl5-1777" target="7g-5XyvWssEIG0KanUl5-1818" edge="1">
          <mxGeometry width="50" height="50" relative="1" as="geometry">
            <mxPoint x="-250" y="-260" as="sourcePoint" />
            <mxPoint x="-200" y="-310" as="targetPoint" />
          </mxGeometry>
        </mxCell>
        <mxCell id="uEwHEvehHXahFJ2oK5lq-1751" value="Ent" style="rounded=1;whiteSpace=wrap;html=1;shadow=0;labelBackgroundColor=none;strokeColor=none;strokeWidth=3;fillColor=#2F5B7C;fontFamily=Helvetica;fontSize=16;fontColor=#FFFFFF;align=center;fontStyle=1;spacing=5;arcSize=7;perimeterSpacing=2;rotation=0;" parent="1" vertex="1">
          <mxGeometry x="120" y="-313" width="30" height="23" as="geometry" />
        </mxCell>
        <mxCell id="7g-5XyvWssEIG0KanUl5-1912" value="&lt;b&gt;CourtYard&lt;/b&gt;" style="ellipse;whiteSpace=wrap;html=1;rounded=0;strokeColor=#82b366;fillColor=#d5e8d4;opacity=50;" parent="1" vertex="1">
          <mxGeometry x="89" y="-337" width="92" height="47" as="geometry" />
        </mxCell>
        <mxCell id="uEwHEvehHXahFJ2oK5lq-1752" value="" style="endArrow=none;html=1;rounded=0;strokeColor=#EA6B66;jumpSize=10;exitX=0;exitY=0;exitDx=0;exitDy=0;entryX=1;entryY=1;entryDx=0;entryDy=0;" parent="1" edge="1">
          <mxGeometry width="50" height="50" relative="1" as="geometry">
            <mxPoint x="194.5" y="-290.28" as="sourcePoint" />
            <mxPoint x="82.5" y="-290.28" as="targetPoint" />
          </mxGeometry>
        </mxCell>
        <mxCell id="uEwHEvehHXahFJ2oK5lq-1754" value="" style="endArrow=none;html=1;rounded=0;entryX=0;entryY=0.5;entryDx=0;entryDy=0;exitX=1;exitY=0.5;exitDx=0;exitDy=0;" parent="1" source="7g-5XyvWssEIG0KanUl5-1805" target="uEwHEvehHXahFJ2oK5lq-1753" edge="1">
          <mxGeometry width="50" height="50" relative="1" as="geometry">
            <mxPoint x="-50" y="-278" as="sourcePoint" />
            <mxPoint x="363" y="-278" as="targetPoint" />
            <Array as="points">
              <mxPoint x="30" y="-270" />
            </Array>
          </mxGeometry>
        </mxCell>
        <mxCell id="uEwHEvehHXahFJ2oK5lq-1753" value="Node" style="rhombus;whiteSpace=wrap;html=1;rounded=0;strokeColor=#2F5B7C;fillColor=none;" parent="1" vertex="1">
          <mxGeometry x="119.69" y="-281.19" width="30.62" height="27.19" as="geometry" />
        </mxCell>
        <mxCell id="uEwHEvehHXahFJ2oK5lq-1755" value="" style="endArrow=none;html=1;rounded=0;entryX=0.5;entryY=1;entryDx=0;entryDy=0;exitX=0.5;exitY=0;exitDx=0;exitDy=0;" parent="1" source="uEwHEvehHXahFJ2oK5lq-1753" target="7g-5XyvWssEIG0KanUl5-1912" edge="1">
          <mxGeometry width="50" height="50" relative="1" as="geometry">
            <mxPoint x="145" y="-332" as="sourcePoint" />
            <mxPoint x="145" y="-336" as="targetPoint" />
          </mxGeometry>
        </mxCell>
        <mxCell id="uEwHEvehHXahFJ2oK5lq-1756" value="Chg1" style="rounded=0;whiteSpace=wrap;html=1;" parent="1" vertex="1">
          <mxGeometry x="-610" y="-748.5" width="110" height="60" as="geometry" />
        </mxCell>
        <mxCell id="uEwHEvehHXahFJ2oK5lq-1758" value="Chg2" style="rounded=0;whiteSpace=wrap;html=1;" parent="1" vertex="1">
          <mxGeometry x="-610" y="-808.5" width="110" height="60" as="geometry" />
        </mxCell>
        <mxCell id="uEwHEvehHXahFJ2oK5lq-1759" value="Chg3" style="rounded=0;whiteSpace=wrap;html=1;" parent="1" vertex="1">
          <mxGeometry x="-760" y="-808.5" width="110" height="60" as="geometry" />
        </mxCell>
        <mxCell id="uEwHEvehHXahFJ2oK5lq-1760" value="Chg4" style="rounded=0;whiteSpace=wrap;html=1;" parent="1" vertex="1">
          <mxGeometry x="-790" y="-748.5" width="140" height="60" as="geometry" />
        </mxCell>
        <mxCell id="uEwHEvehHXahFJ2oK5lq-1761" value="ClimbingWalls" style="rounded=0;whiteSpace=wrap;html=1;" parent="1" vertex="1">
          <mxGeometry x="-950" y="-808.5" width="190" height="60" as="geometry" />
        </mxCell>
        <mxCell id="uEwHEvehHXahFJ2oK5lq-1762" value="" style="rounded=0;whiteSpace=wrap;html=1;" parent="1" vertex="1">
          <mxGeometry x="-760" y="-848.5" width="60" height="40" as="geometry" />
        </mxCell>
        <mxCell id="uEwHEvehHXahFJ2oK5lq-1764" value="Stairs" style="rounded=0;whiteSpace=wrap;html=1;" parent="1" vertex="1">
          <mxGeometry x="-700" y="-848.5" width="50" height="40" as="geometry" />
        </mxCell>
        <mxCell id="uEwHEvehHXahFJ2oK5lq-1766" value="" style="rounded=0;whiteSpace=wrap;html=1;" parent="1" vertex="1">
          <mxGeometry x="-610" y="-848.5" width="110" height="40" as="geometry" />
        </mxCell>
        <mxCell id="uEwHEvehHXahFJ2oK5lq-1768" value="Ent" style="rounded=1;whiteSpace=wrap;html=1;shadow=0;labelBackgroundColor=none;strokeColor=none;strokeWidth=3;fillColor=#2F5B7C;fontFamily=Helvetica;fontSize=16;fontColor=#FFFFFF;align=center;fontStyle=1;spacing=5;arcSize=7;perimeterSpacing=2;rotation=0;" parent="1" vertex="1">
          <mxGeometry x="-650" y="-848.5" width="40" height="33" as="geometry" />
        </mxCell>
        <mxCell id="uEwHEvehHXahFJ2oK5lq-1769" value="Grounds Equipment" style="rounded=0;whiteSpace=wrap;html=1;" parent="1" vertex="1">
          <mxGeometry x="-1010" y="-748.5" width="220" height="228.5" as="geometry" />
        </mxCell>
        <mxCell id="uEwHEvehHXahFJ2oK5lq-1770" value="" style="rounded=0;whiteSpace=wrap;html=1;" parent="1" vertex="1">
          <mxGeometry x="-1010" y="-518.5" width="220" height="60" as="geometry" />
        </mxCell>
        <mxCell id="uEwHEvehHXahFJ2oK5lq-1771" value="" style="rounded=0;whiteSpace=wrap;html=1;" parent="1" vertex="1">
          <mxGeometry x="-1010" y="-458.5" width="220" height="20" as="geometry" />
        </mxCell>
        <mxCell id="uEwHEvehHXahFJ2oK5lq-1772" value="&lt;b&gt;Sports Pavillion&lt;/b&gt;" style="ellipse;whiteSpace=wrap;html=1;rounded=0;strokeColor=#82b366;fillColor=#d5e8d4;opacity=50;" parent="1" vertex="1">
          <mxGeometry x="-790" y="-618.5" width="150" height="117.5" as="geometry" />
        </mxCell>
        <mxCell id="uEwHEvehHXahFJ2oK5lq-1773" value="Ent" style="rounded=1;whiteSpace=wrap;html=1;shadow=0;labelBackgroundColor=none;strokeColor=none;strokeWidth=3;fillColor=#2F5B7C;fontFamily=Helvetica;fontSize=16;fontColor=#FFFFFF;align=center;fontStyle=1;spacing=5;arcSize=7;perimeterSpacing=2;rotation=0;" parent="1" vertex="1">
          <mxGeometry x="-650" y="-661.5" width="40" height="33" as="geometry" />
        </mxCell>
        <mxCell id="uEwHEvehHXahFJ2oK5lq-1774" value="" style="rounded=0;whiteSpace=wrap;html=1;" parent="1" vertex="1">
          <mxGeometry x="-790" y="-688.5" width="80" height="60" as="geometry" />
        </mxCell>
        <mxCell id="uEwHEvehHXahFJ2oK5lq-1775" value="" style="rounded=0;whiteSpace=wrap;html=1;" parent="1" vertex="1">
          <mxGeometry x="-710" y="-688.5" width="60" height="60" as="geometry" />
        </mxCell>
        <mxCell id="uEwHEvehHXahFJ2oK5lq-1776" value="" style="rounded=0;whiteSpace=wrap;html=1;" parent="1" vertex="1">
          <mxGeometry x="-570" y="-688.5" width="70" height="60" as="geometry" />
        </mxCell>
        <mxCell id="uEwHEvehHXahFJ2oK5lq-1777" value="Stairs&lt;div&gt;Lift&lt;/div&gt;" style="rounded=0;whiteSpace=wrap;html=1;" parent="1" vertex="1">
          <mxGeometry x="-610" y="-688.5" width="40" height="60" as="geometry" />
        </mxCell>
        <mxCell id="uEwHEvehHXahFJ2oK5lq-1778" value="" style="endArrow=none;html=1;rounded=0;strokeColor=#EA6B66;jumpSize=10;entryX=0;entryY=1;entryDx=0;entryDy=0;" parent="1" target="7g-5XyvWssEIG0KanUl5-1776" edge="1">
          <mxGeometry width="50" height="50" relative="1" as="geometry">
            <mxPoint x="-360" y="-250" as="sourcePoint" />
            <mxPoint x="-360" y="-320" as="targetPoint" />
            <Array as="points">
              <mxPoint x="-360" y="-320" />
            </Array>
          </mxGeometry>
        </mxCell>
        <mxCell id="uEwHEvehHXahFJ2oK5lq-1779" value="Ent" style="rounded=1;whiteSpace=wrap;html=1;shadow=0;labelBackgroundColor=none;strokeColor=none;strokeWidth=3;fillColor=#2F5B7C;fontFamily=Helvetica;fontSize=16;fontColor=#FFFFFF;align=center;fontStyle=1;spacing=5;arcSize=7;perimeterSpacing=2;rotation=0;" parent="1" vertex="1">
          <mxGeometry x="-313.9" y="-264.19" width="35" height="11.19" as="geometry" />
        </mxCell>
        <mxCell id="uEwHEvehHXahFJ2oK5lq-1783" value="" style="endArrow=none;html=1;rounded=0;entryX=0;entryY=0.5;entryDx=0;entryDy=0;" parent="1" target="uEwHEvehHXahFJ2oK5lq-1782" edge="1">
          <mxGeometry width="50" height="50" relative="1" as="geometry">
            <mxPoint x="-380" y="-236" as="sourcePoint" />
            <mxPoint x="-180" y="-236" as="targetPoint" />
          </mxGeometry>
        </mxCell>
        <mxCell id="uEwHEvehHXahFJ2oK5lq-1782" value="Node" style="rhombus;whiteSpace=wrap;html=1;rounded=0;strokeColor=#2F5B7C;fillColor=none;" parent="1" vertex="1">
          <mxGeometry x="-308.34999999999997" y="-246.25" width="23.9" height="22.5" as="geometry" />
        </mxCell>
        <mxCell id="uEwHEvehHXahFJ2oK5lq-1784" value="" style="endArrow=none;html=1;rounded=0;exitX=0.5;exitY=0;exitDx=0;exitDy=0;" parent="1" source="uEwHEvehHXahFJ2oK5lq-1782" target="uEwHEvehHXahFJ2oK5lq-1779" edge="1">
          <mxGeometry width="50" height="50" relative="1" as="geometry">
            <mxPoint x="-300" y="-210" as="sourcePoint" />
            <mxPoint x="-250" y="-260" as="targetPoint" />
          </mxGeometry>
        </mxCell>
        <mxCell id="uEwHEvehHXahFJ2oK5lq-1785" value="M1" style="rounded=0;whiteSpace=wrap;html=1;" parent="1" vertex="1">
          <mxGeometry x="-1010" y="-248.6" width="80" height="115" as="geometry" />
        </mxCell>
        <mxCell id="uEwHEvehHXahFJ2oK5lq-1791" value="M3" style="rounded=0;whiteSpace=wrap;html=1;" parent="1" vertex="1">
          <mxGeometry x="-860" y="-248.6" width="70" height="115" as="geometry" />
        </mxCell>
        <mxCell id="uEwHEvehHXahFJ2oK5lq-1792" value="M2" style="rounded=0;whiteSpace=wrap;html=1;" parent="1" vertex="1">
          <mxGeometry x="-930" y="-208.6" width="70" height="75" as="geometry" />
        </mxCell>
        <mxCell id="uEwHEvehHXahFJ2oK5lq-1793" value="" style="rounded=0;whiteSpace=wrap;html=1;" parent="1" vertex="1">
          <mxGeometry x="-930" y="-248.6" width="70" height="40" as="geometry" />
        </mxCell>
        <mxCell id="uEwHEvehHXahFJ2oK5lq-1795" value="" style="rounded=0;whiteSpace=wrap;html=1;" parent="1" vertex="1">
          <mxGeometry x="-1010" y="-98.6" width="280" height="340" as="geometry" />
        </mxCell>
        <mxCell id="uEwHEvehHXahFJ2oK5lq-1797" value="Dis" style="rounded=0;whiteSpace=wrap;html=1;" parent="1" vertex="1">
          <mxGeometry x="-730" y="-98.6" width="30" height="28.5" as="geometry" />
        </mxCell>
        <mxCell id="uEwHEvehHXahFJ2oK5lq-1798" value="Stairs" style="rounded=0;whiteSpace=wrap;html=1;" parent="1" vertex="1">
          <mxGeometry x="-700" y="-98.6" width="40" height="38" as="geometry" />
        </mxCell>
        <mxCell id="uEwHEvehHXahFJ2oK5lq-1799" value="Ent" style="rounded=1;whiteSpace=wrap;html=1;shadow=0;labelBackgroundColor=none;strokeColor=none;strokeWidth=3;fillColor=#2F5B7C;fontFamily=Helvetica;fontSize=16;fontColor=#FFFFFF;align=center;fontStyle=1;spacing=5;arcSize=7;perimeterSpacing=2;rotation=0;" parent="1" vertex="1">
          <mxGeometry x="-690" y="-60.6" width="30" height="20" as="geometry" />
        </mxCell>
        <mxCell id="uEwHEvehHXahFJ2oK5lq-1800" value="" style="rounded=0;whiteSpace=wrap;html=1;" parent="1" vertex="1">
          <mxGeometry x="-730" y="-40.1" width="30" height="80" as="geometry" />
        </mxCell>
        <mxCell id="uEwHEvehHXahFJ2oK5lq-1801" value="Staff&lt;div&gt;Chg&lt;/div&gt;" style="rounded=0;whiteSpace=wrap;html=1;" parent="1" vertex="1">
          <mxGeometry x="-700" y="-40.1" width="40" height="100" as="geometry" />
        </mxCell>
        <mxCell id="uEwHEvehHXahFJ2oK5lq-1802" value="" style="rounded=0;whiteSpace=wrap;html=1;" parent="1" vertex="1">
          <mxGeometry x="-730" y="39.9" width="30" height="80" as="geometry" />
        </mxCell>
        <mxCell id="uEwHEvehHXahFJ2oK5lq-1803" value="" style="rounded=0;whiteSpace=wrap;html=1;" parent="1" vertex="1">
          <mxGeometry x="-700" y="59.9" width="40" height="30" as="geometry" />
        </mxCell>
        <mxCell id="uEwHEvehHXahFJ2oK5lq-1804" value="" style="rounded=0;whiteSpace=wrap;html=1;" parent="1" vertex="1">
          <mxGeometry x="-700" y="89.9" width="40" height="20" as="geometry" />
        </mxCell>
        <mxCell id="uEwHEvehHXahFJ2oK5lq-1805" value="" style="rounded=0;whiteSpace=wrap;html=1;" parent="1" vertex="1">
          <mxGeometry x="-700" y="109.9" width="30" height="20" as="geometry" />
        </mxCell>
        <mxCell id="uEwHEvehHXahFJ2oK5lq-1806" value="" style="rounded=0;whiteSpace=wrap;html=1;" parent="1" vertex="1">
          <mxGeometry x="-670" y="109.9" width="10" height="20" as="geometry" />
        </mxCell>
        <mxCell id="uEwHEvehHXahFJ2oK5lq-1807" value="" style="rounded=0;whiteSpace=wrap;html=1;" parent="1" vertex="1">
          <mxGeometry x="-730" y="120.53" width="30" height="39.37" as="geometry" />
        </mxCell>
        <mxCell id="uEwHEvehHXahFJ2oK5lq-1808" value="" style="rounded=0;whiteSpace=wrap;html=1;" parent="1" vertex="1">
          <mxGeometry x="-730" y="159.9" width="30" height="81.6" as="geometry" />
        </mxCell>
        <mxCell id="uEwHEvehHXahFJ2oK5lq-1810" value="Staff&lt;div&gt;Chg&lt;/div&gt;" style="rounded=0;whiteSpace=wrap;html=1;" parent="1" vertex="1">
          <mxGeometry x="-700" y="129.9" width="40" height="111.6" as="geometry" />
        </mxCell>
        <mxCell id="uEwHEvehHXahFJ2oK5lq-1811" value="&lt;b&gt;Sports Hall&lt;/b&gt;" style="ellipse;whiteSpace=wrap;html=1;rounded=0;strokeColor=#82b366;fillColor=#d5e8d4;opacity=50;" parent="1" vertex="1">
          <mxGeometry x="-940" y="4.9" width="150" height="117.5" as="geometry" />
        </mxCell>
        <mxCell id="uEwHEvehHXahFJ2oK5lq-1812" value="School Shop" style="rounded=0;whiteSpace=wrap;html=1;" parent="1" vertex="1">
          <mxGeometry x="-1120" y="679.2" width="100" height="111.6" as="geometry" />
        </mxCell>
        <mxCell id="uEwHEvehHXahFJ2oK5lq-1813" value="School House&lt;div&gt;H1-4&lt;/div&gt;" style="rounded=0;whiteSpace=wrap;html=1;" parent="1" vertex="1">
          <mxGeometry x="-1036.67" y="880" width="120" height="111.6" as="geometry" />
        </mxCell>
        <mxCell id="uEwHEvehHXahFJ2oK5lq-1814" value="" style="endArrow=none;html=1;rounded=0;strokeColor=#EA6B66;jumpSize=10;" parent="1" edge="1">
          <mxGeometry width="50" height="50" relative="1" as="geometry">
            <mxPoint x="-830" y="860" as="sourcePoint" />
            <mxPoint x="-1150.0033333333333" y="860" as="targetPoint" />
          </mxGeometry>
        </mxCell>
        <mxCell id="uEwHEvehHXahFJ2oK5lq-1815" value="Practise Rooms" style="rounded=0;whiteSpace=wrap;html=1;" parent="1" vertex="1">
          <mxGeometry x="-560" y="560" width="180" height="40" as="geometry" />
        </mxCell>
        <mxCell id="uEwHEvehHXahFJ2oK5lq-1816" value="" style="rounded=0;whiteSpace=wrap;html=1;" parent="1" vertex="1">
          <mxGeometry x="-710" y="633" width="70" height="124" as="geometry" />
        </mxCell>
        <mxCell id="uEwHEvehHXahFJ2oK5lq-1818" value="Practise Rooms" style="rounded=0;whiteSpace=wrap;html=1;" parent="1" vertex="1">
          <mxGeometry x="-315" y="560" width="180" height="40" as="geometry" />
        </mxCell>
        <mxCell id="uEwHEvehHXahFJ2oK5lq-1819" value="" style="rounded=0;whiteSpace=wrap;html=1;" parent="1" vertex="1">
          <mxGeometry x="-330" y="560" width="15" height="40" as="geometry" />
        </mxCell>
        <mxCell id="uEwHEvehHXahFJ2oK5lq-1820" value="" style="rounded=0;whiteSpace=wrap;html=1;" parent="1" vertex="1">
          <mxGeometry x="-360" y="560" width="30" height="40" as="geometry" />
        </mxCell>
        <mxCell id="uEwHEvehHXahFJ2oK5lq-1821" value="" style="rounded=0;whiteSpace=wrap;html=1;" parent="1" vertex="1">
          <mxGeometry x="-135" y="560" width="25" height="40" as="geometry" />
        </mxCell>
        <mxCell id="uEwHEvehHXahFJ2oK5lq-1822" value="" style="rounded=0;whiteSpace=wrap;html=1;" parent="1" vertex="1">
          <mxGeometry x="-110.31" y="560" width="30.31" height="40" as="geometry" />
        </mxCell>
        <mxCell id="uEwHEvehHXahFJ2oK5lq-1823" value="" style="rounded=0;whiteSpace=wrap;html=1;" parent="1" vertex="1">
          <mxGeometry x="-80" y="560" width="40" height="40" as="geometry" />
        </mxCell>
        <mxCell id="uEwHEvehHXahFJ2oK5lq-1824" value="Music Hall&lt;div&gt;P11&lt;/div&gt;" style="rounded=0;whiteSpace=wrap;html=1;" parent="1" vertex="1">
          <mxGeometry x="-560" y="633" width="180" height="97" as="geometry" />
        </mxCell>
        <mxCell id="uEwHEvehHXahFJ2oK5lq-1825" value="Ent" style="rounded=1;whiteSpace=wrap;html=1;shadow=0;labelBackgroundColor=none;strokeColor=none;strokeWidth=3;fillColor=#2F5B7C;fontFamily=Helvetica;fontSize=16;fontColor=#FFFFFF;align=center;fontStyle=1;spacing=5;arcSize=7;perimeterSpacing=2;rotation=0;" parent="1" vertex="1">
          <mxGeometry x="-560" y="600" width="30" height="33" as="geometry" />
        </mxCell>
        <mxCell id="uEwHEvehHXahFJ2oK5lq-1827" value="" style="rounded=0;whiteSpace=wrap;html=1;" parent="1" vertex="1">
          <mxGeometry x="-380" y="633" width="30" height="40" as="geometry" />
        </mxCell>
        <mxCell id="uEwHEvehHXahFJ2oK5lq-1829" value="" style="rounded=0;whiteSpace=wrap;html=1;" parent="1" vertex="1">
          <mxGeometry x="-380" y="673" width="30" height="57" as="geometry" />
        </mxCell>
        <mxCell id="uEwHEvehHXahFJ2oK5lq-1830" value="Drama Hall&lt;div&gt;P10&lt;/div&gt;" style="rounded=0;whiteSpace=wrap;html=1;" parent="1" vertex="1">
          <mxGeometry x="-350" y="633" width="180" height="97" as="geometry" />
        </mxCell>
        <mxCell id="uEwHEvehHXahFJ2oK5lq-1831" value="" style="rounded=0;whiteSpace=wrap;html=1;" parent="1" vertex="1">
          <mxGeometry x="-170" y="690" width="30" height="40" as="geometry" />
        </mxCell>
        <mxCell id="uEwHEvehHXahFJ2oK5lq-1832" value="" style="rounded=0;whiteSpace=wrap;html=1;" parent="1" vertex="1">
          <mxGeometry x="-170" y="660" width="30" height="30" as="geometry" />
        </mxCell>
        <mxCell id="uEwHEvehHXahFJ2oK5lq-1833" value="" style="rounded=0;whiteSpace=wrap;html=1;" parent="1" vertex="1">
          <mxGeometry x="-140" y="660" width="10" height="30" as="geometry" />
        </mxCell>
        <mxCell id="uEwHEvehHXahFJ2oK5lq-1834" value="" style="rounded=0;whiteSpace=wrap;html=1;" parent="1" vertex="1">
          <mxGeometry x="-130" y="660" width="40" height="30" as="geometry" />
        </mxCell>
        <mxCell id="uEwHEvehHXahFJ2oK5lq-1835" value="P6" style="rounded=0;whiteSpace=wrap;html=1;" parent="1" vertex="1">
          <mxGeometry x="-140.31" y="690" width="90.31" height="40" as="geometry" />
        </mxCell>
        <mxCell id="uEwHEvehHXahFJ2oK5lq-1836" value="P9" style="rounded=0;whiteSpace=wrap;html=1;" parent="1" vertex="1">
          <mxGeometry x="-90" y="660" width="40" height="30" as="geometry" />
        </mxCell>
        <mxCell id="uEwHEvehHXahFJ2oK5lq-1837" value="P1" style="rounded=0;whiteSpace=wrap;html=1;" parent="1" vertex="1">
          <mxGeometry y="600" width="90.31" height="90" as="geometry" />
        </mxCell>
        <mxCell id="uEwHEvehHXahFJ2oK5lq-1838" value="P2" style="rounded=0;whiteSpace=wrap;html=1;" parent="1" vertex="1">
          <mxGeometry y="690" width="90.31" height="90" as="geometry" />
        </mxCell>
        <mxCell id="uEwHEvehHXahFJ2oK5lq-1839" value="&lt;div&gt;Music Office&lt;/div&gt;P7" style="rounded=0;whiteSpace=wrap;html=1;" parent="1" vertex="1">
          <mxGeometry x="-95.15" y="740" width="50" height="40" as="geometry" />
        </mxCell>
        <mxCell id="uEwHEvehHXahFJ2oK5lq-1840" value="P6" style="rounded=0;whiteSpace=wrap;html=1;" parent="1" vertex="1">
          <mxGeometry x="-95.15" y="780" width="75.15" height="80" as="geometry" />
        </mxCell>
        <mxCell id="uEwHEvehHXahFJ2oK5lq-1841" value="P3" style="rounded=0;whiteSpace=wrap;html=1;" parent="1" vertex="1">
          <mxGeometry x="40" y="780" width="50.31" height="20" as="geometry" />
        </mxCell>
        <mxCell id="uEwHEvehHXahFJ2oK5lq-1842" value="P3" style="rounded=0;whiteSpace=wrap;html=1;" parent="1" vertex="1">
          <mxGeometry x="40" y="800" width="50.31" height="20" as="geometry" />
        </mxCell>
        <mxCell id="uEwHEvehHXahFJ2oK5lq-1843" value="P5" style="rounded=0;whiteSpace=wrap;html=1;" parent="1" vertex="1">
          <mxGeometry x="-20" y="820" width="110.31" height="40" as="geometry" />
        </mxCell>
        <mxCell id="uEwHEvehHXahFJ2oK5lq-1844" value="" style="endArrow=none;html=1;rounded=0;strokeColor=#EA6B66;jumpSize=10;exitX=0;exitY=0;exitDx=0;exitDy=0;entryX=0.5;entryY=1;entryDx=0;entryDy=0;" parent="1" source="uEwHEvehHXahFJ2oK5lq-1839" target="uEwHEvehHXahFJ2oK5lq-1835" edge="1">
          <mxGeometry width="50" height="50" relative="1" as="geometry">
            <mxPoint x="-90" y="460" as="sourcePoint" />
            <mxPoint x="-170" y="780" as="targetPoint" />
          </mxGeometry>
        </mxCell>
        <mxCell id="uEwHEvehHXahFJ2oK5lq-1845" value="Garr&lt;div&gt;Ent&lt;/div&gt;" style="rounded=1;whiteSpace=wrap;html=1;shadow=0;labelBackgroundColor=none;strokeColor=none;strokeWidth=3;fillColor=#2F5B7C;fontFamily=Helvetica;fontSize=16;fontColor=#FFFFFF;align=center;fontStyle=1;spacing=5;arcSize=7;perimeterSpacing=2;" parent="1" vertex="1">
          <mxGeometry x="-40" y="570" width="40" height="30" as="geometry" />
        </mxCell>
        <mxCell id="uEwHEvehHXahFJ2oK5lq-1846" value="&lt;b&gt;Hammond Theatre&lt;/b&gt;" style="ellipse;whiteSpace=wrap;html=1;rounded=0;strokeColor=#82b366;fillColor=#d5e8d4;opacity=50;" parent="1" vertex="1">
          <mxGeometry x="-361.1" y="93.75" width="150" height="117.5" as="geometry" />
        </mxCell>
        <mxCell id="uEwHEvehHXahFJ2oK5lq-1847" value="&lt;b&gt;Main Hall&lt;/b&gt;" style="ellipse;whiteSpace=wrap;html=1;rounded=0;strokeColor=#82b366;fillColor=#d5e8d4;opacity=50;" parent="1" vertex="1">
          <mxGeometry x="470" y="-5" width="120" height="80" as="geometry" />
        </mxCell>
        <mxCell id="uEwHEvehHXahFJ2oK5lq-1848" value="" style="whiteSpace=wrap;html=1;aspect=fixed;" parent="1" vertex="1">
          <mxGeometry x="-290" y="600" width="80" height="80" as="geometry" />
        </mxCell>
        <mxCell id="uEwHEvehHXahFJ2oK5lq-1849" value="Garrick Tennis Courts" style="rounded=0;whiteSpace=wrap;html=1;" parent="1" vertex="1">
          <mxGeometry x="-710" y="800" width="580" height="280" as="geometry" />
        </mxCell>
        <mxCell id="uEwHEvehHXahFJ2oK5lq-1850" value="" style="endArrow=none;html=1;rounded=0;strokeColor=#EA6B66;jumpSize=10;" parent="1" edge="1">
          <mxGeometry width="50" height="50" relative="1" as="geometry">
            <mxPoint x="-830" y="1090" as="sourcePoint" />
            <mxPoint x="-830" y="900" as="targetPoint" />
          </mxGeometry>
        </mxCell>
        <mxCell id="uEwHEvehHXahFJ2oK5lq-1851" value="" style="endArrow=none;html=1;rounded=0;fillColor=#dae8fc;strokeColor=#6c8ebf;" parent="1" edge="1">
          <mxGeometry width="50" height="50" relative="1" as="geometry">
            <mxPoint x="-830" y="900" as="sourcePoint" />
            <mxPoint x="-830" y="860" as="targetPoint" />
          </mxGeometry>
        </mxCell>
        <mxCell id="uEwHEvehHXahFJ2oK5lq-1852" value="Tennis Courts" style="rounded=0;whiteSpace=wrap;html=1;" parent="1" vertex="1">
          <mxGeometry x="643.75" y="591.6" width="316.25" height="488.4" as="geometry" />
        </mxCell>
        <mxCell id="uEwHEvehHXahFJ2oK5lq-1853" value="3G Astro Fields" style="rounded=0;whiteSpace=wrap;html=1;" parent="1" vertex="1">
          <mxGeometry x="1120" y="-524.2" width="640" height="1204.2" as="geometry" />
        </mxCell>
        <mxCell id="uEwHEvehHXahFJ2oK5lq-1854" value="Tennis Courts&lt;div&gt;(astro)&lt;/div&gt;" style="rounded=0;whiteSpace=wrap;html=1;" parent="1" vertex="1">
          <mxGeometry x="1120" y="680" width="640" height="400" as="geometry" />
        </mxCell>
        <mxCell id="uEwHEvehHXahFJ2oK5lq-1855" value="Ent" style="rounded=1;whiteSpace=wrap;html=1;shadow=0;labelBackgroundColor=none;strokeColor=none;strokeWidth=3;fillColor=#2F5B7C;fontFamily=Helvetica;fontSize=16;fontColor=#FFFFFF;align=center;fontStyle=1;spacing=5;arcSize=7;perimeterSpacing=2;" parent="1" vertex="1">
          <mxGeometry x="1120" y="437" width="40" height="50" as="geometry" />
        </mxCell>
        <mxCell id="uEwHEvehHXahFJ2oK5lq-1856" value="Ent" style="rounded=1;whiteSpace=wrap;html=1;shadow=0;labelBackgroundColor=none;strokeColor=none;strokeWidth=3;fillColor=#2F5B7C;fontFamily=Helvetica;fontSize=16;fontColor=#FFFFFF;align=center;fontStyle=1;spacing=5;arcSize=7;perimeterSpacing=2;" parent="1" vertex="1">
          <mxGeometry x="1160" y="-524.5" width="50" height="34.5" as="geometry" />
        </mxCell>
        <mxCell id="uEwHEvehHXahFJ2oK5lq-1857" value="Ent" style="rounded=1;whiteSpace=wrap;html=1;shadow=0;labelBackgroundColor=none;strokeColor=none;strokeWidth=3;fillColor=#2F5B7C;fontFamily=Helvetica;fontSize=16;fontColor=#FFFFFF;align=center;fontStyle=1;spacing=5;arcSize=7;perimeterSpacing=2;" parent="1" vertex="1">
          <mxGeometry x="918.75" y="1030" width="40" height="50" as="geometry" />
        </mxCell>
        <mxCell id="uEwHEvehHXahFJ2oK5lq-1858" value="Ent" style="rounded=1;whiteSpace=wrap;html=1;shadow=0;labelBackgroundColor=none;strokeColor=none;strokeWidth=3;fillColor=#2F5B7C;fontFamily=Helvetica;fontSize=16;fontColor=#FFFFFF;align=center;fontStyle=1;spacing=5;arcSize=7;perimeterSpacing=2;" parent="1" vertex="1">
          <mxGeometry x="640" y="591.5" width="50" height="38.5" as="geometry" />
        </mxCell>
        <mxCell id="uEwHEvehHXahFJ2oK5lq-1859" value="Ent" style="rounded=1;whiteSpace=wrap;html=1;shadow=0;labelBackgroundColor=none;strokeColor=none;strokeWidth=3;fillColor=#2F5B7C;fontFamily=Helvetica;fontSize=16;fontColor=#FFFFFF;align=center;fontStyle=1;spacing=5;arcSize=7;perimeterSpacing=2;" parent="1" vertex="1">
          <mxGeometry x="1120" y="680" width="40" height="50" as="geometry" />
        </mxCell>
        <mxCell id="uEwHEvehHXahFJ2oK5lq-1860" value="Ent" style="rounded=1;whiteSpace=wrap;html=1;shadow=0;labelBackgroundColor=none;strokeColor=none;strokeWidth=3;fillColor=#2F5B7C;fontFamily=Helvetica;fontSize=16;fontColor=#FFFFFF;align=center;fontStyle=1;spacing=5;arcSize=7;perimeterSpacing=2;" parent="1" vertex="1">
          <mxGeometry x="1720" y="628" width="40" height="50" as="geometry" />
        </mxCell>
        <mxCell id="uEwHEvehHXahFJ2oK5lq-1861" value="Ent" style="rounded=1;whiteSpace=wrap;html=1;shadow=0;labelBackgroundColor=none;strokeColor=none;strokeWidth=3;fillColor=#2F5B7C;fontFamily=Helvetica;fontSize=16;fontColor=#FFFFFF;align=center;fontStyle=1;spacing=5;arcSize=7;perimeterSpacing=2;" parent="1" vertex="1">
          <mxGeometry x="1720" y="678" width="40" height="50" as="geometry" />
        </mxCell>
        <mxCell id="uEwHEvehHXahFJ2oK5lq-1863" value="&lt;div&gt;PA&lt;/div&gt;G1" style="rounded=0;whiteSpace=wrap;html=1;" parent="1" vertex="1">
          <mxGeometry x="290" y="330" width="30" height="40" as="geometry" />
        </mxCell>
        <mxCell id="uEwHEvehHXahFJ2oK5lq-1864" value="" style="rounded=0;whiteSpace=wrap;html=1;" parent="1" vertex="1">
          <mxGeometry x="320" y="340" width="30" height="30" as="geometry" />
        </mxCell>
        <mxCell id="uEwHEvehHXahFJ2oK5lq-1865" value="Dis" style="rounded=0;whiteSpace=wrap;html=1;" parent="1" vertex="1">
          <mxGeometry x="420" y="340" width="30" height="30" as="geometry" />
        </mxCell>
        <mxCell id="uEwHEvehHXahFJ2oK5lq-1866" value="" style="endArrow=none;html=1;rounded=0;fillColor=#f8cecc;strokeColor=#b85450;entryX=1;entryY=0;entryDx=0;entryDy=0;exitX=0.222;exitY=1.001;exitDx=0;exitDy=0;exitPerimeter=0;" parent="1" source="gbSmUv_tBAqvp1aVJgPZ-1763" target="uEwHEvehHXahFJ2oK5lq-1865" edge="1">
          <mxGeometry width="50" height="50" relative="1" as="geometry">
            <mxPoint x="370" y="305" as="sourcePoint" />
            <mxPoint x="250" y="305" as="targetPoint" />
          </mxGeometry>
        </mxCell>
        <mxCell id="uEwHEvehHXahFJ2oK5lq-1867" value="" style="rounded=0;whiteSpace=wrap;html=1;" parent="1" vertex="1">
          <mxGeometry x="320" y="230" width="20" height="20" as="geometry" />
        </mxCell>
        <mxCell id="uEwHEvehHXahFJ2oK5lq-1868" value="" style="rounded=0;whiteSpace=wrap;html=1;" parent="1" vertex="1">
          <mxGeometry x="320" y="250" width="30" height="30" as="geometry" />
        </mxCell>
        <mxCell id="uEwHEvehHXahFJ2oK5lq-1872" value="&lt;b&gt;Reception&lt;/b&gt;" style="ellipse;whiteSpace=wrap;html=1;rounded=0;strokeColor=#82b366;fillColor=#d5e8d4;opacity=50;" parent="1" vertex="1">
          <mxGeometry x="325" y="290" width="120" height="80" as="geometry" />
        </mxCell>
        <mxCell id="uEwHEvehHXahFJ2oK5lq-1875" value="Parking" style="rounded=0;whiteSpace=wrap;html=1;fillColor=#fff2cc;strokeColor=#d6b656;opacity=50;" parent="1" vertex="1">
          <mxGeometry x="480" y="360" width="477.5" height="190" as="geometry" />
        </mxCell>
        <mxCell id="uEwHEvehHXahFJ2oK5lq-1876" value="Parking" style="rounded=0;whiteSpace=wrap;html=1;fillColor=#fff2cc;strokeColor=#d6b656;opacity=50;" parent="1" vertex="1">
          <mxGeometry x="-1138.75" y="270" width="477.5" height="330" as="geometry" />
        </mxCell>
        <mxCell id="uEwHEvehHXahFJ2oK5lq-1877" value="Parking" style="rounded=0;whiteSpace=wrap;html=1;fillColor=#fff2cc;strokeColor=#d6b656;opacity=50;" parent="1" vertex="1">
          <mxGeometry x="-70.31" y="380" width="190" height="120" as="geometry" />
        </mxCell>
        <mxCell id="uEwHEvehHXahFJ2oK5lq-1879" value="Parking" style="rounded=0;whiteSpace=wrap;html=1;fillColor=#fff2cc;strokeColor=#d6b656;opacity=50;" parent="1" vertex="1">
          <mxGeometry x="-1010" y="-413" width="330" height="143" as="geometry" />
        </mxCell>
      </root>
    </mxGraphModel>
  </diagram>
</mxfile>
